<?xml version="1.0" encoding="utf-8"?>
<!-- Generator: Adobe Illustrator 19.0.0, SVG Export Plug-In . SVG Version: 6.00 Build 0)  -->
<svg version="1.1" id="Laag_1" xmlns="http://www.w3.org/2000/svg" xmlns:xlink="http://www.w3.org/1999/xlink" x="0px" y="0px"
	 viewBox="0 0 42.5 42.5" style="enable-background:new 0 0 42.5 42.5;" xml:space="preserve">
<style type="text/css">
	.st0{fill:#FFFFFF;}
	.st1{fill:#ADACB2;}
	.st2{fill:#57575A;}
	.st3{fill:#FFEA90;}
	.st4{fill:#FFDA47;}
	.st5{fill:#F49722;}
</style>
<rect id="XMLID_1_" x="0" class="st0" width="42.5" height="42.5"/>
<g id="XMLID_1087_">
	<path id="XMLID_1088_" class="st1" d="M15.8,36.5c0,2.8,2.3,5.1,5.1,5.1s5.1-2.3,5.1-5.1v-0.3H15.8V36.5z"/>
	<polygon id="XMLID_1089_" class="st2" points="20.9,33 19.3,33 15.8,33 15.8,36.2 26,36.2 26,33 22.5,33 	"/>
	<path id="XMLID_1090_" class="st3" d="M19.3,22.6c-2.5-0.7-4.3-3-4.3-5.7h3.2c0,1.5,1.2,2.7,2.7,2.7c0-6.7,0-14.4,0-18.7
		c-7.7,0-14,6.3-14,14c0,5.2,2.8,9.7,7,12.1l1.9,6h3.5V22.6z"/>
	<path id="XMLID_1091_" class="st4" d="M20.9,1c0,4.3,0,12,0,18.7c1.5,0,2.7-1.2,2.7-2.7h3.2c0,2.7-1.8,5-4.3,5.7V33H26l1.9-6
		c4.2-2.4,7-6.9,7-12.1C34.9,7.2,28.6,1,20.9,1z"/>
	<path id="XMLID_1092_" class="st5" d="M18.2,17H15c0,2.7,1.8,5,4.3,5.7V33h3.2V22.6c2.5-0.7,4.3-3,4.3-5.7h-3.2
		c0,1.5-1.2,2.7-2.7,2.7C19.4,19.7,18.2,18.5,18.2,17z"/>
</g>
</svg>
