<?xml version="1.0" encoding="utf-8"?>
<!-- Generator: Adobe Illustrator 19.0.0, SVG Export Plug-In . SVG Version: 6.00 Build 0)  -->
<svg version="1.1" id="Laag_1" xmlns="http://www.w3.org/2000/svg" xmlns:xlink="http://www.w3.org/1999/xlink" x="0px" y="0px"
	 viewBox="0 0 42.5 42.5" style="enable-background:new 0 0 42.5 42.5;" xml:space="preserve">
<style type="text/css">
	.st0{fill:#FFFFFF;}
	.st1{fill:#ADACB2;}
	.st2{fill:#BFBFC1;}
	.st3{fill:#464756;}
	.st4{fill:#EA5355;}
	.st5{fill:#C94247;}
</style>
<rect id="XMLID_1_" x="0" class="st0" width="42.5" height="42.5"/>
<path id="XMLID_109_" class="st1" d="M7.2,19.6v1.6c2.1,1.8,7.6,3.1,14.1,3.1s12.1-1.3,14.1-3.1v-1.6H7.2z"/>
<path id="XMLID_108_" class="st2" d="M28.4,23.5c-6.5,0-12.1-1.3-14.1-3.1v-0.8H7.2v1.6c2.1,1.8,7.6,3.1,14.1,3.1
	c3.1,0,6-0.3,8.3-0.8C29.2,23.5,28.8,23.5,28.4,23.5z"/>
<path id="XMLID_107_" class="st1" d="M36.2,21.1H6.4c-0.9,0-1.6-0.7-1.6-1.6v-2.4h32.9v2.4C37.8,20.4,37.1,21.1,36.2,21.1z"/>
<path id="XMLID_106_" class="st2" d="M14.3,19.6v-2.4H4.9v2.4c0,0.9,0.7,1.6,1.6,1.6h9.4C15,21.1,14.3,20.4,14.3,19.6z"/>
<polygon id="XMLID_104_" class="st1" points="41.7,11.7 0.9,11.7 4.9,18 37.8,18 "/>
<polygon id="XMLID_103_" class="st2" points="21.3,11.7 0.9,11.7 4.9,18 21.3,18 "/>
<polygon id="XMLID_102_" class="st3" points="40.1,11.7 2.5,11.7 6.4,18 36.2,18 "/>
<path id="XMLID_101_" class="st1" d="M41.7,13.3H0.9c-0.4,0-0.8-0.4-0.8-0.8V3.1c0-0.4,0.4-0.8,0.8-0.8h40.8c0.4,0,0.8,0.4,0.8,0.8
	v9.4C42.5,12.9,42.1,13.3,41.7,13.3z"/>
<circle id="XMLID_100_" class="st4" cx="21.3" cy="7.8" r="2.4"/>
<path id="XMLID_99_" class="st5" d="M22.5,9c-1.3,0-2.4-1.1-2.4-2.4c0-0.3,0.1-0.7,0.2-1C19.5,6,19,6.9,19,7.8
	c0,1.3,1.1,2.4,2.4,2.4c1,0,1.8-0.6,2.1-1.4C23.2,8.9,22.9,9,22.5,9z"/>
<path id="XMLID_98_" class="st2" d="M11.1,12.5V3.1c0-0.4,0.4-0.8,0.8-0.8h-11c-0.4,0-0.8,0.4-0.8,0.8v9.4c0,0.4,0.4,0.8,0.8,0.8h11
	C11.5,13.3,11.1,12.9,11.1,12.5z"/>
<g id="XMLID_89_">
	<path id="XMLID_17_" class="st1" d="M17.2,39.1c-1.4-1.1-2.6-2-0.5-4.4c1-1.2,1.3-2.1,1.3-2.9c0-1.4-1.1-2.2-2.1-3
		c-0.3-0.3-1-0.3-1.4-0.1c-0.4,0.2-0.5,0.6-0.1,0.9c1.4,1.1,2.6,2,0.5,4.4c-2.7,3.2-0.8,4.7,0.8,5.8c0.3,0.3,1,0.3,1.4,0.1
		C17.5,39.8,17.5,39.4,17.2,39.1z M19.3,29.7c1.4,1.1,2.6,2,0.5,4.4c-2.7,3.2-0.8,4.7,0.8,5.8c0.3,0.3,1,0.3,1.4,0.1
		c0.4-0.2,0.5-0.6,0.1-0.9c-1.4-1.1-2.6-2-0.5-4.4c1-1.2,1.3-2.1,1.3-2.9c0-1.4-1.1-2.2-2.1-3c-0.3-0.3-1-0.3-1.4-0.1
		C19,29.1,18.9,29.5,19.3,29.7z M24.1,29.7c1.4,1.1,2.6,2,0.5,4.4c-2.7,3.2-0.8,4.7,0.8,5.8c0.3,0.3,1,0.3,1.4,0.1
		c0.4-0.2,0.5-0.6,0.1-0.9c-1.4-1.1-2.6-2-0.5-4.4c1-1.2,1.3-2.1,1.3-2.9c0-1.4-1.1-2.2-2.1-3c-0.3-0.3-1-0.3-1.4-0.1
		C23.8,29.1,23.8,29.5,24.1,29.7z"/>
</g>
</svg>
