<?xml version="1.0" encoding="utf-8"?>
<!-- Generator: Adobe Illustrator 19.0.0, SVG Export Plug-In . SVG Version: 6.00 Build 0)  -->
<svg version="1.1" id="Laag_1" xmlns="http://www.w3.org/2000/svg" xmlns:xlink="http://www.w3.org/1999/xlink" x="0px" y="0px"
	 viewBox="0 0 42.5 42.5" style="enable-background:new 0 0 42.5 42.5;" xml:space="preserve">
<style type="text/css">
	.st0{fill:#FFFFFF;}
	.st1{fill:#A1D5D7;}
	.st2{fill:#6F6E6D;}
	.st3{fill:#5C5B5A;}
	.st4{fill:#5C5C5C;}
	.st5{opacity:0.27;fill:#E1E8EC;}
</style>
<rect id="XMLID_1_" x="0" class="st0" width="42.5" height="42.5"/>
<g id="XMLID_78_">
	<path id="XMLID_70_" class="st1" d="M36.9,5.6c-1.2-1.2-2.5-2.1-4.1-2.7c-1.5-0.6-3-0.9-4.6-0.9c-1.6,0-3.1,0.3-4.6,0.9
		c-1.5,0.6-2.9,1.5-4.1,2.7c-1.2,1.2-2.1,2.5-2.7,4.1c-0.6,1.5-0.9,3-0.9,4.6c0,1.6,0.3,3.1,0.9,4.6c0.6,1.5,1.5,2.9,2.7,4.1
		c1.2,1.2,2.5,2.1,4.1,2.7c1.5,0.6,3,0.9,4.6,0.9c1.6,0,3.1-0.3,4.6-0.9c1.5-0.6,2.9-1.5,4.1-2.7c1.2-1.2,2.1-2.5,2.7-4.1
		c0.6-1.5,0.9-3,0.9-4.6c0-1.6-0.3-3.1-0.9-4.6C39,8.2,38.1,6.8,36.9,5.6"/>
	<g id="XMLID_73_">
		
			<rect id="XMLID_69_" x="-0.2" y="39.2" transform="matrix(0.7071 0.7071 -0.7071 0.7071 29.0464 9.9919)" class="st2" width="5.3" height="1.6"/>
		
			<rect id="XMLID_68_" x="14.2" y="24.8" transform="matrix(0.7071 0.7071 -0.7071 0.7071 23.0846 -4.4012)" class="st2" width="5.3" height="1.6"/>
		
			<rect id="XMLID_65_" x="7.6" y="23.5" transform="matrix(0.7071 0.7071 -0.7071 0.7071 26.0656 2.7954)" class="st2" width="4.1" height="18.7"/>
		
			<rect id="XMLID_64_" x="17.2" y="23.4" transform="matrix(0.7071 0.7071 -0.7071 0.7071 22.5542 -5.6817)" class="st2" width="1.9" height="2"/>
		<g id="XMLID_80_">
			<path id="XMLID_81_" class="st2" d="M36.9,5.6c-1.2-1.2-2.5-2.1-4.1-2.7c-1.5-0.6-3-0.9-4.6-0.9c-1.6,0-3.1,0.3-4.6,0.9
				c-1.5,0.6-2.9,1.5-4.1,2.7c-1.2,1.2-2.1,2.5-2.7,4.1c-0.6,1.5-0.9,3-0.9,4.6c0,1.6,0.3,3.1,0.9,4.6c0.6,1.5,1.5,2.9,2.7,4.1
				c1.2,1.2,2.5,2.1,4.1,2.7c1.5,0.6,3,0.9,4.6,0.9c1.6,0,3.1-0.3,4.6-0.9c1.5-0.6,2.9-1.5,4.1-2.7c1.2-1.2,2.1-2.5,2.7-4.1
				c0.6-1.5,0.9-3,0.9-4.6c0-1.6-0.3-3.1-0.9-4.6C39,8.2,38.1,6.8,36.9,5.6 M18.1,24.4c-1.4-1.4-2.4-3-3.1-4.7c-0.7-1.7-1-3.5-1-5.4
				c0-1.9,0.4-3.7,1-5.4c0.7-1.8,1.8-3.4,3.1-4.7c1.4-1.4,3-2.4,4.7-3.1c1.7-0.7,3.5-1,5.4-1c1.9,0,3.7,0.4,5.4,1
				c1.8,0.7,3.4,1.8,4.7,3.1s2.4,3,3.1,4.7c0.7,1.7,1,3.5,1,5.4c0,1.9-0.4,3.7-1,5.4c-0.7,1.8-1.8,3.4-3.1,4.7
				c-1.4,1.4-3,2.4-4.7,3.1c-1.7,0.7-3.5,1-5.4,1c-1.9,0-3.7-0.4-5.4-1C21.1,26.8,19.5,25.8,18.1,24.4"/>
		</g>
		
			<rect id="XMLID_60_" x="2.1" y="40.2" transform="matrix(0.7071 0.7071 -0.7071 0.7071 29.987 9.6023)" class="st2" width="2.7" height="1.6"/>
		<polygon id="XMLID_59_" class="st2" points="19.3,27 17.4,25.1 16.3,26.2 17.7,27.7 18.2,28.1 		"/>
		
			<rect id="XMLID_58_" x="9.4" y="24.2" transform="matrix(0.7071 0.7071 -0.7071 0.7071 26.7969 2.4925)" class="st3" width="2.1" height="18.7"/>
		<g id="XMLID_74_">
			<path id="XMLID_55_" class="st4" d="M18.8,25.1c-0.2-0.2-0.5-0.4-0.7-0.7l-0.7,0.7l0.7,0.7L18.8,25.1z"/>
			<path id="XMLID_54_" class="st4" d="M38.3,4.2l-1.4,1.4c1.2,1.2,2.1,2.5,2.7,4.1c0.6,1.5,0.9,3,0.9,4.6c0,1.6-0.3,3.1-0.9,4.6
				c-0.6,1.5-1.5,2.9-2.7,4.1c-1.2,1.2-2.5,2.1-4.1,2.7c-1.5,0.6-3,0.9-4.6,0.9c-1.6,0-3.1-0.3-4.6-0.9c-1.5-0.6-2.9-1.5-4.1-2.7
				l-1.4,1.4c0.2,0.2,0.4,0.5,0.7,0.7c1.2,1,2.6,1.9,4.1,2.4c1.7,0.7,3.5,1,5.4,1c1.9,0,3.7-0.4,5.4-1c1.8-0.7,3.4-1.8,4.7-3.1
				c1.4-1.4,2.4-3,3.1-4.7c0.7-1.7,1-3.5,1-5.4c0-1.9-0.4-3.7-1-5.4C40.8,7.1,39.7,5.6,38.3,4.2"/>
		</g>
	</g>
	<path id="XMLID_52_" class="st5" d="M32.8,8.3c1.5-0.6,2.9-1.5,4.1-2.7c-1.2-1.2-2.5-2.1-4-2.7c-1.5-0.6-3-0.9-4.6-0.9
		c-1.6,0-3.1,0.3-4.6,0.9c-1.5,0.6-2.9,1.5-4.1,2.7c1.2,1.2,2.5,2.1,4,2.7c1.5,0.6,3,0.9,4.6,0.9C29.8,9.2,31.4,8.9,32.8,8.3z"/>
</g>
</svg>
