<?xml version="1.0" encoding="utf-8"?>
<!-- Generator: Adobe Illustrator 19.0.0, SVG Export Plug-In . SVG Version: 6.00 Build 0)  -->
<svg version="1.1" id="Laag_1" xmlns="http://www.w3.org/2000/svg" xmlns:xlink="http://www.w3.org/1999/xlink" x="0px" y="0px"
	 viewBox="0 0 42.5 42.5" style="enable-background:new 0 0 42.5 42.5;" xml:space="preserve">
<style type="text/css">
	.st0{fill:#FFFFFF;}
	.st1{fill:#79B6BA;}
	.st2{fill:#F59A24;}
	.st3{fill:#6F6E6D;}
	.st4{fill:#5E9EA7;}
</style>
<rect id="XMLID_1_" x="0" class="st0" width="42.5" height="42.5"/>
<g id="XMLID_87_">
	<path id="XMLID_105_" class="st1" d="M8.9,42.5c-2.3,0-4.2-1.9-4.2-4.2V13.1c0-1.7,1-3.2,2.6-3.9l7-2.9l0-2.1
		c0-2.3,1.9-4.2,4.2-4.2h14.3c2.3,0,4.2,1.9,4.2,4.2v34.1c0,2.3-1.9,4.2-4.2,4.2H8.9z M27,6.3c1.7,0,4.2-0.8,4.5-2.2
		c0.1-0.6,0.2-1.4,0.2-1.6c-0.1-0.2-0.3-0.3-0.5-0.3H19.4c-1.8,0-2.7,1.2-2.7,3.5v0.6H27z"/>
	
		<rect id="XMLID_61_" x="7.2" y="6.8" transform="matrix(0.924 -0.3824 0.3824 0.924 -2.0838 4.3767)" class="st2" width="5.6" height="1.4"/>
	<path id="XMLID_22_" class="st3" d="M14,6.7L6.6,9.8L5.1,6.2c-0.3-0.7,0-1.5,0.7-1.7l5-2.1c0.7-0.3,1.5,0,1.7,0.7L14,6.7z"/>
	<path id="XMLID_53_" class="st4" d="M25.2,27.4v-4.1c0,0,0,0,0-0.1L33,13c0,0,0,0,0,0c-1-0.8-2.4-0.6-3.2,0.4L24,21
		c-0.5-0.3-1-0.5-1.7-0.5h-2L11,14.1c-0.7,1-0.4,2.5,0.6,3.2l6.4,4.3c-0.4,0.5-0.6,1.1-0.6,1.7v4.1c0,0,0,0.1,0,0.1L10,37.8
		c0,0,0.1,0,0.1,0.1c1,0.7,2.4,0.4,3.1-0.6l5.5-7.5c0.5,0.3,1,0.5,1.6,0.5h2L32.4,38c0,0,0-0.1,0.1-0.1c0.7-1,0.5-2.4-0.5-3.1
		l-7.3-5.6C25,28.7,25.2,28.1,25.2,27.4z M20.2,28.1c-0.4,0-0.7-0.3-0.7-0.7v-4.1c0-0.4,0.3-0.7,0.7-0.7h2.2c0.4,0,0.7,0.3,0.7,0.7
		v4.1c0,0.4-0.3,0.7-0.7,0.7H20.2z"/>
</g>
</svg>
