<?xml version="1.0" encoding="utf-8"?>
<!-- Generator: Adobe Illustrator 19.0.0, SVG Export Plug-In . SVG Version: 6.00 Build 0)  -->
<svg version="1.1" id="Laag_1" xmlns="http://www.w3.org/2000/svg" xmlns:xlink="http://www.w3.org/1999/xlink" x="0px" y="0px"
	 viewBox="0 0 42.5 42.5" style="enable-background:new 0 0 42.5 42.5;" xml:space="preserve">
<style type="text/css">
	.st0{fill:#FFFFFF;}
	.st1{fill:#58585B;}
	.st2{fill:#79B6BA;}
	.st3{fill:#ADACB2;}
	.st4{fill:#BFBFC1;}
</style>
<rect id="XMLID_1_" x="0" class="st0" width="42.5" height="42.5"/>
<g id="XMLID_86_">
	<path id="XMLID_20_" class="st1" d="M41.6,3.8H0.9C0.4,3.8,0,4.2,0,4.7v4.5c0,0.5,0.4,0.9,0.9,0.9h4c0.6,8.6,7.8,15.4,16.5,15.4
		c8.7,0,15.9-6.8,16.5-15.4h3.6c0.5,0,0.9-0.4,0.9-0.9V4.7C42.5,4.2,42.1,3.8,41.6,3.8z M21.5,23.5c-7.6,0-13.9-5.9-14.5-13.4h29
		C35.4,17.6,29.1,23.5,21.5,23.5z"/>
	<path id="XMLID_11_" class="st2" d="M22.4,31.3c-0.2,0-0.3,0.1-0.4,0.2c-0.2,0.4-2.3,4-2.3,5.4c0,1.5,1.2,2.7,2.7,2.7
		c1.5,0,2.7-1.2,2.7-2.7c0-1.3-2.1-5-2.3-5.4C22.7,31.4,22.6,31.3,22.4,31.3z"/>
	<path id="XMLID_10_" class="st2" d="M8.3,25C8.2,25,8,25.1,8,25.2c-0.2,0.4-2.3,4-2.3,5.4c0,1.5,1.2,2.7,2.7,2.7s2.7-1.2,2.7-2.7
		c0-1.3-2.1-5-2.3-5.4C8.6,25.1,8.5,25,8.3,25z"/>
	<path id="XMLID_9_" class="st2" d="M35.2,25c-0.2,0-0.3,0.1-0.4,0.2c-0.2,0.4-2.3,4-2.3,5.4c0,1.5,1.2,2.7,2.7,2.7
		c1.5,0,2.7-1.2,2.7-2.7c0-1.3-2.1-5-2.3-5.4C35.5,25.1,35.3,25,35.2,25z"/>
	<path id="XMLID_15_" class="st1" d="M5.9,8.6c0,8.5,6.9,15.3,15.3,15.3s15.3-6.9,15.3-15.3"/>
	<path id="XMLID_16_" class="st3" d="M5,10.1c0,8.7,7.4,15.8,16.5,15.8s16.5-7.1,16.5-15.8"/>
	<path id="XMLID_14_" class="st4" d="M4.9,10.1c0,8.7,7.8,15.8,17.5,15.8V10.1H4.9z"/>
</g>
</svg>
