<?xml version="1.0" encoding="utf-8"?>
<!-- Generator: Adobe Illustrator 19.0.0, SVG Export Plug-In . SVG Version: 6.00 Build 0)  -->
<svg version="1.1" id="Laag_1" xmlns="http://www.w3.org/2000/svg" xmlns:xlink="http://www.w3.org/1999/xlink" x="0px" y="0px"
	 viewBox="0 0 42.5 42.5" style="enable-background:new 0 0 42.5 42.5;" xml:space="preserve">
<style type="text/css">
	.st0{fill:#FFFFFF;}
	.st1{fill:#BFBFC1;}
	.st2{fill:#ADACB2;}
	.st3{fill:#59595C;}
	.st4{fill:#5A5A5D;}
</style>
<rect id="XMLID_1_" x="0" class="st0" width="42.5" height="42.5"/>
<path id="XMLID_114_" class="st1" d="M5.7,37.3v2.4C5.7,41,6.7,42,8,42h27.2c1.2,0,2.2-1,2.2-2.2V2.8c0-1.2-1-2.2-2.2-2.2H8
	c-1.2,0-2.2,1-2.2,2.2v32"/>
<rect id="XMLID_113_" x="5.7" y="8.6" class="st2" width="31.7" height="1.2"/>
<circle id="XMLID_112_" class="st0" cx="21.6" cy="25.6" r="12.1"/>
<path id="XMLID_127_" class="st1" d="M21.6,38.2C14.6,38.2,9,32.5,9,25.6S14.6,13,21.6,13s12.6,5.6,12.6,12.6S28.5,38.2,21.6,38.2z
	 M21.6,14C15.2,14,10,19.2,10,25.6s5.2,11.6,11.6,11.6S33.2,32,33.2,25.6S28,14,21.6,14z"/>
<path id="XMLID_97_" class="st2" d="M25.6,28.4c0.4,1,1,1.9,1.7,2.7c-1.4,1.5-3.5,2.5-5.7,2.5c-4.4,0-7.9-3.6-7.9-7.9
	s3.6-7.9,7.9-7.9c2.3,0,4.3,0.9,5.7,2.5c-0.7,0.8-1.3,1.7-1.7,2.7c-0.3,0.9-0.5,1.8-0.5,2.8C25.1,26.6,25.3,27.5,25.6,28.4z"/>
<path id="XMLID_96_" class="st3" d="M25.1,25.6c0,1,0.2,1.9,0.5,2.8c-0.9,1.3-2.4,2.1-4,2.1c-2.7,0-4.9-2.2-4.9-4.9s2.2-4.9,4.9-4.9
	c1.7,0,3.2,0.8,4,2.1C25.3,23.7,25.1,24.6,25.1,25.6z"/>
<circle id="XMLID_95_" class="st4" cx="31.8" cy="4.8" r="1.9"/>
<path id="XMLID_121_" class="st2" d="M31.8,7.2c-1.3,0-2.4-1.1-2.4-2.4s1.1-2.4,2.4-2.4c1.3,0,2.4,1.1,2.4,2.4S33.2,7.2,31.8,7.2z
	 M31.8,3.4c-0.8,0-1.4,0.6-1.4,1.4s0.6,1.4,1.4,1.4s1.4-0.6,1.4-1.4S32.6,3.4,31.8,3.4z"/>
</svg>
