<?xml version="1.0" encoding="utf-8"?>
<!-- Generator: Adobe Illustrator 19.0.0, SVG Export Plug-In . SVG Version: 6.00 Build 0)  -->
<svg version="1.1" id="Laag_1" xmlns="http://www.w3.org/2000/svg" xmlns:xlink="http://www.w3.org/1999/xlink" x="0px" y="0px"
	 viewBox="0 0 42.5 42.5" style="enable-background:new 0 0 42.5 42.5;" xml:space="preserve">
<style type="text/css">
	.st0{fill:#FFFFFF;}
	.st1{fill:#CDD4D5;}
	.st2{fill:#706F6D;}
	.st3{fill:#BFBFC1;}
	.st4{fill:#ED6A3B;}
	.st5{fill:#F28A32;}
	.st6{fill:#375659;}
	.st7{fill:#FCD1AA;}
</style>
<rect id="XMLID_1_" x="0" class="st0" width="42.5" height="42.5"/>
<g id="XMLID_197_">
	<path id="XMLID_171_" class="st1" d="M30.5,27L15.7,12.2c-0.3-0.3-0.7-0.3-0.9,0l-2.4,2.4c-0.1,0.1-0.2,0.3-0.2,0.5
		s0.1,0.3,0.2,0.5l14.8,14.8c0.1,0.1,0.3,0.2,0.5,0.2c0.2,0,0.3-0.1,0.5-0.2l2.4-2.4C30.8,27.7,30.8,27.3,30.5,27z"/>
	<path id="XMLID_170_" class="st1" d="M17.9,6.6L12.3,1c-0.3-0.3-0.7-0.3-0.9,0L8.9,3.4c-0.3,0.3-0.3,0.7,0,0.9l4.2,4.2l-4.4,4.4
		L4.5,8.8c-0.3-0.3-0.7-0.3-0.9,0l-2.4,2.4c-0.3,0.3-0.3,0.7,0,0.9l5.6,5.6c0.1,0.1,0.3,0.2,0.5,0.2c0,0,0,0,0.1,0l5.4-0.5
		c0.2,0,0.3-0.1,0.4-0.2l4.4-4.4c0.1-0.1,0.2-0.2,0.2-0.4l0.5-5.4C18.1,6.9,18,6.7,17.9,6.6z"/>
</g>
<path id="XMLID_169_" class="st0" d="M14.1,6.8c-0.2,0-0.3-0.1-0.5-0.2l-1.7-1.7c-0.3-0.3-0.3-0.7,0-0.9c0.3-0.3,0.7-0.3,0.9,0
	l1.7,1.7c0.3,0.3,0.3,0.7,0,0.9C14.4,6.7,14.3,6.8,14.1,6.8z"/>
<path id="XMLID_168_" class="st1" d="M41.7,30.4l-5.6-5.6c-0.1-0.1-0.3-0.2-0.5-0.2l-5.4,0.5c-0.2,0-0.3,0.1-0.4,0.2l-4.4,4.4
	c-0.1,0.1-0.2,0.2-0.2,0.4l-0.5,5.4c0,0.2,0.1,0.4,0.2,0.5l5.6,5.6c0.1,0.1,0.3,0.2,0.5,0.2s0.3-0.1,0.5-0.2l2.4-2.4
	c0.3-0.3,0.3-0.7,0-0.9L29.8,34l4.4-4.4l4.2,4.2c0.3,0.3,0.7,0.3,0.9,0l2.4-2.4C42,31.1,42,30.7,41.7,30.4z"/>
<path id="XMLID_167_" class="st2" d="M13.6,13.3l-1.3,1.3c-0.1,0.1-0.2,0.3-0.2,0.5c0,0.2,0.1,0.3,0.2,0.5l14.8,14.8
	c0.1,0.1,0.3,0.2,0.5,0.2c0.2,0,0.3-0.1,0.5-0.2l1.3-1.3L13.6,13.3z"/>
<g id="XMLID_191_">
	<path id="XMLID_166_" class="st3" d="M10.9,10.7l-2.3,2.3L4.5,8.8c-0.3-0.3-0.7-0.3-0.9,0l-2.4,2.4c-0.3,0.3-0.3,0.7,0,0.9l5.6,5.6
		c0.1,0.1,0.3,0.2,0.5,0.2c0,0,0,0,0.1,0l5.4-0.5c0.2,0,0.3-0.1,0.4-0.2l2.2-2.2L10.9,10.7z"/>
	<path id="XMLID_165_" class="st3" d="M25.5,29.7c-0.1,0.1-0.2,0.2-0.2,0.4l-0.5,5.4c0,0.2,0.1,0.4,0.2,0.5l5.6,5.6
		c0.1,0.1,0.3,0.2,0.5,0.2s0.3-0.1,0.5-0.2l2.4-2.4c0.3-0.3,0.3-0.7,0-0.9L29.8,34l2.3-2.3l-4.3-4.3L25.5,29.7z"/>
</g>
<g id="XMLID_188_">
	<path id="XMLID_164_" class="st1" d="M29.9,12.3L28,10.4c-0.3-0.3-0.7-0.3-0.9,0L14.2,23.3c-0.3,0.3-0.3,0.7,0,0.9l1.9,1.9
		c0.1,0.1,0.3,0.2,0.5,0.2c0.2,0,0.3-0.1,0.5-0.2l12.9-12.9C30.2,13,30.2,12.6,29.9,12.3z"/>
	<path id="XMLID_163_" class="st1" d="M38,4.3L36,2.4c-0.2-0.2-0.5-0.2-0.7-0.1l-5.4,2.4c-0.1,0-0.1,0.1-0.2,0.1l-4.1,4.1
		c-0.3,0.3-0.3,0.7,0,0.9l4.9,4.9c0.1,0.1,0.3,0.2,0.5,0.2s0.3-0.1,0.5-0.2l4.1-4.1c0.1-0.1,0.1-0.1,0.1-0.2L38.1,5
		C38.2,4.8,38.2,4.5,38,4.3z"/>
</g>
<path id="XMLID_162_" class="st4" d="M16.8,29.9l-6.3-6.3c-0.3-0.3-0.7-0.3-0.9,0L2,31.1c-0.3,0.3-0.3,0.7,0,0.9l6.3,6.3
	c0.1,0.1,0.3,0.2,0.5,0.2s0.3-0.1,0.5-0.2l7.5-7.5C17.1,30.5,17.1,30.1,16.8,29.9z"/>
<path id="XMLID_161_" class="st5" d="M10.5,23.5c-0.3-0.3-0.7-0.3-0.9,0L2,31.1c-0.3,0.3-0.3,0.7,0,0.9l3.1,3.1l8.5-8.5L10.5,23.5z"
	/>
<g id="XMLID_183_">
	
		<rect id="XMLID_160_" x="8.8" y="24.9" transform="matrix(0.7071 0.7071 -0.7071 0.7071 24.6248 2.4061)" class="st6" width="1.3" height="12"/>
	
		<rect id="XMLID_158_" x="10.6" y="26.7" transform="matrix(0.7071 0.7071 -0.7071 0.7071 26.2778 1.5786)" class="st6" width="1.3" height="11.6"/>
</g>
<g id="XMLID_179_">
	
		<rect id="XMLID_157_" x="7.2" y="23.3" transform="matrix(0.7071 0.7071 -0.7071 0.7071 22.8717 2.9898)" class="st2" width="1.3" height="11.6"/>
	
		<rect id="XMLID_155_" x="3.2" y="30.4" transform="matrix(0.7071 -0.7071 0.7071 0.7071 -19.0134 15.4699)" class="st2" width="12" height="0.6"/>
	<path id="XMLID_154_" class="st2" d="M28.9,11.3L15.1,25.2l1,1c0.1,0.1,0.3,0.2,0.5,0.2c0.2,0,0.3-0.1,0.5-0.2l12.9-12.9
		c0.3-0.3,0.3-0.7,0-0.9L28.9,11.3z"/>
</g>
<path id="XMLID_153_" class="st3" d="M37,3.3L28,12.3l2.5,2.5c0.1,0.1,0.3,0.2,0.5,0.2s0.3-0.1,0.5-0.2l4.1-4.1
	c0.1-0.1,0.1-0.1,0.1-0.2L38.1,5c0.1-0.2,0.1-0.5-0.1-0.7L37,3.3z"/>
<path id="XMLID_152_" class="st5" d="M6.6,39.7c0.1,0,0.2,0,0.3-0.1l2.2-1.2l-7.2-7.2l-1.2,2.2c-0.1,0.3-0.1,0.6,0.1,0.8l5.4,5.4
	C6.3,39.7,6.4,39.7,6.6,39.7z"/>
<path id="XMLID_151_" class="st7" d="M1.9,31.2l-1.2,2.2c-0.1,0.3-0.1,0.6,0.1,0.8l2.6,2.6l2-2L1.9,31.2z"/>
<path id="XMLID_149_" class="st5" d="M13.9,22.1c-0.2-0.2-0.5-0.2-0.7-0.1l-3.4,1.5l7.2,7.2l1.5-3.4c0.1-0.2,0-0.5-0.1-0.7
	L13.9,22.1z"/>
<path id="XMLID_148_" class="st7" d="M13.9,22.1c-0.2-0.2-0.5-0.2-0.7-0.1l-3.4,1.5l3.6,3.6l2.7-2.7L13.9,22.1z"/>
<path id="XMLID_145_" class="st0" d="M29.1,10.1c-0.2,0-0.3-0.1-0.5-0.2c-0.3-0.3-0.3-0.7,0-0.9l2.1-2.1c0.3-0.3,0.7-0.3,0.9,0
	c0.3,0.3,0.3,0.7,0,0.9l-2.1,2.1C29.5,10,29.3,10.1,29.1,10.1z"/>
</svg>
