<?xml version="1.0" encoding="utf-8"?>
<!-- Generator: Adobe Illustrator 19.0.0, SVG Export Plug-In . SVG Version: 6.00 Build 0)  -->
<svg version="1.1" id="Laag_1" xmlns="http://www.w3.org/2000/svg" xmlns:xlink="http://www.w3.org/1999/xlink" x="0px" y="0px"
	 viewBox="0 0 42.5 42.5" style="enable-background:new 0 0 42.5 42.5;" xml:space="preserve">
<style type="text/css">
	.st0{fill:#FFFFFF;}
	.st1{fill:#58585B;}
	.st2{fill:#CDD4D5;}
	.st3{fill:#ADACB2;}
	.st4{fill:#F28932;}
	.st5{fill:#D1D1D3;}
</style>
<rect id="XMLID_1_" x="0" class="st0" width="42.5" height="42.5"/>
<g id="XMLID_146_">
	<path id="XMLID_150_" class="st1" d="M32.1,30.9v2.7c0,3.9-3.2,7-7,7s-7-3.2-7-7V8.9c0,0,0,0,0,0c0-4.9-4-8.8-8.8-8.8
		c-4.9,0-8.8,4-8.8,8.8v24.7c0,0.5,0.4,0.9,0.9,0.9s0.9-0.4,0.9-0.9V8.9c0-3.9,3.2-7,7-7c3.9,0,7,3.2,7,7c0,0,0,0,0,0v24.7
		c0,4.9,4,8.8,8.8,8.8s8.8-4,8.8-8.8v-2.7 M32.9,29.2"/>
</g>
<g id="XMLID_156_">
	<g id="XMLID_159_">
		<path id="XMLID_144_" class="st2" d="M25.5,11.1v5.5h3.7v-5.5c0-1-0.8-1.8-1.8-1.8C26.4,9.3,25.5,10.1,25.5,11.1z"/>
		<path id="XMLID_143_" class="st3" d="M36.6,11.1v5.5h3.7v-5.5c0-1-0.8-1.8-1.8-1.8C37.5,9.3,36.6,10.1,36.6,11.1z"/>
	</g>
	<path id="XMLID_141_" class="st4" d="M36.6,16.7h-7.4h-3.7h-0.6c-0.7,0-1.2,0.6-1.2,1.2v1.2c0,0.7,0.6,1.2,1.2,1.2h0.6h14.8h0.6
		c0.7,0,1.2-0.6,1.2-1.2v-1.2c0-0.7-0.6-1.2-1.2-1.2h-0.6H36.6z"/>
	<path id="XMLID_140_" class="st3" d="M40.3,20.4H25.5V24c0,4.1,3.3,7.4,7.4,7.4c4.1,0,7.4-3.3,7.4-7.4L40.3,20.4L40.3,20.4
		L40.3,20.4z"/>
	<path id="XMLID_90_" class="st5" d="M32.9,20.4h7.4v0H25.5V24c0,4.1,3.3,7.4,7.4,7.4"/>
</g>
</svg>
