<?xml version="1.0" standalone="no"?><!DOCTYPE svg PUBLIC "-//W3C//DTD SVG 1.1//EN" "http://www.w3.org/Graphics/SVG/1.1/DTD/svg11.dtd"><svg width="100%" height="100%" viewBox="0 0 716 838" version="1.1" xmlns="http://www.w3.org/2000/svg" xmlns:xlink="http://www.w3.org/1999/xlink" xml:space="preserve" style="fill-rule:evenodd;clip-rule:evenodd;stroke-miterlimit:1.41421;"><g id="g3366"><path id="path3266" d="M427.818,701.444c-0.161,-1.89 -0.317,-3.803 -0.111,-5.371c0.239,-1.83 0.808,-3.349 2.014,-4.253c1.786,-1.339 2.116,-3.976 3.021,-7.162c0.453,-1.593 1.063,-3.269 2.015,-5.036c0.952,-1.768 2.32,-3.621 4.252,-5.372c1.923,-1.742 4.016,-3.886 6.267,-5.484c2.252,-1.598 4.659,-2.627 7.163,-2.35c2.418,0.267 4.815,-0.452 7.498,-1.455c2.682,-1.003 5.642,-2.305 8.953,-3.133c4.711,-1.178 9.18,-3.639 12.869,-5.484c2.522,-1.261 3.662,-2.039 4.812,-3.133c1.151,-1.095 2.293,-2.475 4.701,-4.701c-4.834,-8.294 -0.767,-3.128 -3.693,-7.274c-2.321,-3.288 -2.605,-5.178 -6.379,-8.953c-1.817,-1.817 -2.362,-4.313 -2.798,-7.162c-0.436,-2.849 -0.695,-6.053 -1.902,-9.288c-1.094,-2.931 -1.854,-7.199 -2.015,-11.303c-0.16,-4.105 0.275,-8.048 1.343,-10.184c5.839,-0.335 11.271,0.111 16.787,0.335c5.515,0.225 11.077,0.279 16.898,-0.895c-1.358,-4.655 -3.543,-8.908 -6.043,-12.981c-2.5,-4.074 -5.369,-7.974 -8.169,-11.863c-2.801,-3.889 -5.464,-7.762 -7.722,-11.863c-2.258,-4.1 -4.05,-8.385 -4.924,-13.093c-0.556,-2.992 -1.754,-5 -3.47,-6.267c-1.716,-1.267 -3.947,-1.791 -6.602,-1.791c-6.282,0 -11.456,-0.597 -17.123,-2.014c-3.229,-0.807 -5.729,-2.921 -8.057,-5.26c-2.328,-2.338 -4.48,-4.898 -7.051,-6.826c-2.222,-1.667 -5.199,-2.963 -8.393,-3.805c-3.194,-0.843 -6.602,-1.231 -9.736,-1.231c-5.709,0 -11.413,0 -17.122,0c-6.056,0 -6.15,2.35 -12.534,2.35c-2.699,0 -5.413,1.483 -7.722,3.469c-2.309,1.986 -4.191,4.431 -5.484,6.155c-2.855,3.807 -6.334,6.334 -9.065,9.065c-0.839,0.84 -2.09,1.338 -3.581,1.679c-1.491,0.34 -3.235,0.525 -5.036,0.559c-3.601,0.068 -7.511,-0.336 -10.296,-0.336c-5.147,0 -9.978,-1.851 -13.765,-2.797c-1.256,-0.315 -1.977,-0.942 -2.462,-1.567c-0.484,-0.626 -0.842,-1.338 -1.231,-2.015c-0.388,-0.677 -0.821,-1.21 -1.79,-1.678c-0.969,-0.469 -2.364,-0.784 -4.589,-0.784c-2.422,0 -4.572,-1.416 -6.267,-3.245c-1.694,-1.829 -3.042,-4.07 -3.916,-5.819c-0.449,-0.898 -1.254,-1.546 -2.351,-1.903c-1.096,-0.357 -2.401,-0.42 -3.804,-0.447c-2.807,-0.056 -5.964,0.335 -7.946,0.335c-5.781,0 -9.937,0.436 -13.094,2.015c-1.897,0.948 -4.226,1.104 -6.714,1.119c-2.489,0.014 -5.132,-0.112 -7.386,-0.112c-1.415,0 -2.413,0.377 -3.246,1.007c-0.833,0.63 -1.507,1.518 -2.014,2.462c-1.015,1.887 -1.554,4.016 -2.798,5.26c-2.799,2.799 -7.308,5.044 -9.065,7.386c-1.325,1.768 -2.711,2.974 -4.364,4.029c-1.654,1.054 -3.573,1.954 -5.708,3.021c-3.843,1.922 -7.566,6.302 -11.079,8.058c-1.587,0.794 -4.46,0.758 -7.386,0.559c-2.926,-0.198 -5.9,-0.559 -7.722,-0.559c-5.264,0 -6.32,-1.16 -11.079,-2.35c-3.03,-0.758 -5.658,-0.847 -7.834,0c-2.176,0.846 -3.903,2.628 -5.259,5.371c-1.391,2.813 -1.878,4.462 -2.91,5.596c-1.032,1.134 -2.607,1.752 -6.155,2.462c-2.611,0.522 -4.795,1.306 -7.051,2.014c-2.255,0.709 -4.555,1.343 -7.498,1.343c-1.848,0 -3.722,0.822 -5.371,2.127c-1.649,1.304 -3.069,3.006 -4.253,5.036c-1.184,2.029 -2.12,4.314 -2.574,6.49c-0.454,2.177 -0.429,4.3 0.112,6.044c5.065,16.33 7.513,25.676 9.065,34.356c1.552,8.681 2.18,16.702 3.469,30.216c-0.003,0.044 0.003,0.179 0,0.224c9.797,3.271 27.506,5.785 26.075,-1.119c-1.649,-7.958 0.379,-11.481 -6.155,-25.516c6.418,-3.739 17.852,-3.533 31.559,-7.05c-0.652,7.155 1.152,10.004 0.671,17.234c11.646,0.972 9.569,0.974 25.18,0.783c4.511,-0.055 13.516,-14.579 20.144,-22.27c8.375,4.34 4.642,4.895 11.191,8.17c-5.265,6.681 -6.382,5.478 -12.869,13.429c3.857,4.942 12.948,4.879 28.872,3.805c8.523,-8.239 20.28,-24.157 28.426,-15.108c10.015,11.105 -4.702,15.673 6.043,36.259c3.803,7.287 10.155,7.48 18.801,8.393c0.884,4.406 -0.816,10.072 4.588,10.072c11.812,0 18.622,4.7 27.642,4.701c6.876,0 12.194,-3.118 21.487,-8.953c4.248,-0.208 4.636,0.585 8.058,5.148c6.326,8.435 3.766,8.517 6.714,16.898c1.133,1.132 3.655,2.347 6.043,3.581l0,0Z" style="fill:none;stroke-width:1px;stroke:#000;"/><path id="path3269" d="M504.253,546.224c-1.935,-0.36 -4.043,-0.462 -5.259,-1.679c-2.03,-2.029 -5.966,-4.175 -8.618,-6.826c-1.087,-1.088 -2.187,-2.454 -3.469,-3.469c-1.281,-1.015 -2.756,-1.679 -4.7,-1.679c-2.926,0 -4.079,0.061 -4.476,0.783c-0.357,0.649 -0.131,2.062 -0.224,3.917c0.501,0.23 1.243,0.126 1.678,0.448c1.716,1.267 2.914,3.275 3.47,6.267c0.874,4.708 2.666,8.993 4.924,13.093c2.258,4.101 4.921,7.974 7.722,11.863c2.8,3.889 5.669,7.789 8.169,11.863c2.5,4.073 4.685,8.326 6.043,12.981c-5.821,1.174 -11.383,1.12 -16.898,0.895c-5.516,-0.224 -10.948,-0.67 -16.787,-0.335c-1.068,2.136 -1.503,6.079 -1.343,10.184c0.161,4.104 0.921,8.372 2.015,11.303c1.207,3.235 1.466,6.439 1.902,9.288c0.436,2.849 0.981,5.345 2.798,7.162c3.774,3.775 4.058,5.665 6.379,8.953c2.926,4.146 -1.141,-1.02 3.693,7.274c-2.408,2.226 -3.55,3.606 -4.701,4.701c-1.15,1.094 -2.29,1.872 -4.812,3.133c-3.689,1.845 -8.158,4.306 -12.869,5.484c-3.311,0.828 -6.271,2.13 -8.953,3.133c-2.683,1.003 -5.08,1.722 -7.498,1.455c-2.504,-0.277 -4.911,0.752 -7.163,2.35c-2.251,1.598 -4.344,3.742 -6.267,5.484c-1.932,1.751 -3.3,3.604 -4.252,5.372c-0.952,1.767 -1.562,3.443 -2.015,5.036c-0.905,3.186 -1.235,5.823 -3.021,7.162c-1.206,0.904 -1.775,2.423 -2.014,4.252c-0.206,1.569 -0.05,3.482 0.111,5.372c11.053,5.712 32.601,12.16 44.317,16.787c-2.228,6.691 -4.032,10.535 -5.595,16.786c-1.907,7.625 -3.537,15.667 -10.744,30.328c-3.007,6.118 -9.034,30.931 -12.87,33.461c-6.272,4.138 -9.992,12.166 0.448,22.606c6.881,6.882 -2.623,9.098 3.469,13.542c6.867,5.008 4.788,-5.893 18.242,-2.91c16.237,3.6 21.349,2.33 43.085,1.567c-2.847,-5.733 -4.714,-6.044 -4.252,-14.101c0.201,-3.506 18.575,-7.968 18.465,-22.27c-0.137,-17.314 -9.279,-9.994 -13.541,-15.22c-1.397,-1.712 -1.261,-7.325 -1.007,-10.296c0.253,-2.971 -12.932,-3.611 -24.845,-3.805c0.279,-5.821 -0.033,-4.369 0.672,-12.086c5.389,-4.375 4.066,-7.982 16.451,-7.61c-2.557,-13.599 36.939,-24.396 36.594,-42.19c-12.331,-0.662 -8.158,-1.042 -15.891,-1.12c-0.295,-6.225 5.017,-27.322 24.397,-47.114c2.595,-9.702 -0.224,-12.59 -0.224,-25.292c0,-17.518 3.445,-20.845 -8.729,-34.804c-12.733,-14.599 -14.165,-17.435 -13.206,-31.223c-3.578,-3.578 -13.115,-13.892 -18.801,-20.256l0,0Z" style="fill:none;stroke-width:1px;stroke:#000;"/><path id="path3274" d="M214.293,363.922c-14.472,37.934 -35.758,63.146 -72.294,103.181c-4.837,-1.209 -9.06,-0.254 -14.437,-1.454c-3.048,6.755 -6.509,14.913 -7.61,21.374c7.69,5.534 12.327,5.108 12.758,13.877c0.762,15.479 -55.289,12.489 -33.666,25.062c5.885,3.422 18.966,-9.571 28.267,0.363c6.305,6.734 5.5,1.302 6.623,14.534c0.776,9.14 14.2,10.649 19.703,17.675c6.102,2.848 10.661,8.143 16.787,11.191c0.046,0.143 0.07,0.304 0.112,0.448c1.397,-0.897 2.868,-1.679 4.364,-1.679c2.943,0 5.243,-0.634 7.498,-1.343c2.256,-0.708 4.44,-1.492 7.051,-2.014c3.548,-0.71 5.123,-1.328 6.155,-2.462c1.032,-1.134 1.519,-2.783 2.91,-5.596c1.356,-2.743 3.083,-4.525 5.259,-5.371c2.176,-0.847 4.804,-0.758 7.834,0c4.759,1.19 5.815,2.35 11.079,2.35c1.822,0 4.796,0.361 7.722,0.559c2.926,0.199 5.799,0.235 7.386,-0.559c3.513,-1.756 7.236,-6.136 11.079,-8.058c2.135,-1.067 4.054,-1.967 5.708,-3.021c1.653,-1.055 3.039,-2.261 4.364,-4.029c1.757,-2.342 6.266,-4.587 9.065,-7.386c1.244,-1.244 1.783,-3.373 2.798,-5.26c0.507,-0.944 1.181,-1.832 2.014,-2.462c0.833,-0.63 1.831,-1.007 3.246,-1.007c2.254,0 4.897,0.126 7.386,0.112c2.488,-0.015 4.817,-0.171 6.714,-1.119c3.157,-1.579 7.313,-2.015 13.094,-2.015c1.982,0 5.139,-0.391 7.946,-0.335c1.403,0.027 2.708,0.09 3.804,0.447c0.723,0.235 1.116,0.755 1.567,1.231c0.33,-1.585 -0.368,-2.914 -1.231,-4.588c-0.863,-1.675 -1.902,-3.612 -1.902,-6.603c0,-1.152 0.401,-2.176 1.007,-3.021c0.605,-0.846 1.427,-1.517 2.35,-2.127c1.847,-1.218 4.091,-2.101 5.484,-2.798c6.659,-3.329 6.628,-3.494 10.967,-7.833c3.636,-3.636 5.621,-6.99 8.393,-12.534c1.281,-2.561 1.203,-5.475 0.336,-7.834c-0.867,-2.359 -2.612,-4.206 -4.588,-4.7c-3.01,-0.753 -3.181,-1.466 -3.582,-2.015c-0.4,-0.548 -0.998,-0.895 -4.812,-0.895c-1.921,0 -5.235,1.139 -8.505,2.462c-3.27,1.323 -6.502,2.804 -8.057,3.581c-3.987,1.993 -6.506,4.033 -11.415,5.26c-1.634,0.408 -3.076,0.405 -4.253,0.112c-1.177,-0.294 -2.116,-0.93 -3.022,-1.679c-1.811,-1.497 -3.309,-3.645 -5.147,-5.483c-2.022,-2.022 -3.212,-2.919 -4.141,-3.917c-0.929,-0.999 -1.591,-2.113 -2.238,-4.7c-0.679,-2.715 -0.662,-4.776 -0.224,-6.715c0.438,-1.939 1.34,-3.688 2.35,-5.708c0.748,-1.496 0.922,-3.055 0.783,-4.476c-0.138,-1.421 -0.576,-2.723 -1.231,-3.917c-1.309,-2.388 -3.326,-4.237 -4.476,-4.812c-1.274,-0.637 -1.213,-3.565 -0.783,-6.491c0.429,-2.925 1.284,-5.814 1.566,-6.379c1.182,-2.363 2.701,-3.064 4.253,-3.693c1.552,-0.629 3.138,-1.127 4.252,-3.357c-0.196,-1.991 -1.152,-4.191 -2.573,-6.267c-1.422,-2.076 -3.383,-4.121 -5.596,-5.931c-2.213,-1.811 -4.705,-3.395 -7.274,-4.589c-2.569,-1.193 -5.231,-1.9 -7.722,-2.126c-1.029,-0.113 -1.5,-0.985 -1.791,-2.238c-0.29,-1.253 -0.351,-2.902 -0.223,-4.589c0.254,-3.372 1.007,-6.975 1.007,-7.833c-3.782,1.358 -7,3.725 -10.072,6.267c-3.072,2.541 -5.998,5.288 -9.177,7.61c-1.694,0.847 -3.317,1.315 -4.812,1.454c-1.495,0.14 -2.892,-0.073 -4.141,-0.447c-2.497,-0.749 -4.362,-2.272 -5.595,-3.917c-0.726,-6.03 -0.835,-9.16 0.112,-12.198c0.946,-3.038 2.951,-5.991 6.49,-11.751c-4.435,-2.218 -18.65,-3.674 -22.717,-5.707c-0.083,-0.042 -0.251,-0.071 -0.336,-0.112l0,0Z" style="fill:none;stroke-width:1px;stroke:#000;"/><path id="path3280" d="M341.871,476.616c1.03,-0.397 1.4,-0.692 2.574,-1.119c0.309,0 0.648,0.185 0.895,0c1.794,-1.345 4.601,-1.482 6.491,-2.239c0.755,-0.302 2.34,-0.875 3.917,-1.119c1.577,-0.243 3.104,-0.252 3.917,0.56c1.045,1.045 2.907,3.805 4.7,3.805c2.779,0 5.502,0 8.281,0c3.048,0 7.617,0.724 10.184,-0.56c2.245,-1.122 4.948,-2.642 7.946,-4.14c0.585,-0.293 2.546,-1.378 4.588,-2.127c2.043,-0.749 4.176,-1.195 5.148,-0.224c1.843,1.843 2.982,3.252 5.484,4.253c2.456,0.982 7.277,0.136 9.288,1.343c0.84,0.504 2.146,2.428 3.47,4.141c1.323,1.713 2.653,3.205 3.469,2.797c2.64,-1.32 5.991,-3.7 7.386,-6.49c0.753,-1.506 1.496,-4.111 1.007,-6.491c-0.646,-3.146 -1.167,-3.614 -1.902,-4.029c-0.736,-0.415 -1.737,-0.75 -3.246,-3.357c-1.738,-3.006 -1.862,-13.014 -3.245,-15.78c-0.212,-0.424 -1.718,-3.217 -3.357,-5.931c-1.639,-2.714 -3.385,-5.309 -4.029,-5.148c-1.439,0.36 -4.559,3.217 -6.939,3.693c-1.523,0.305 -3.426,2.127 -5.036,3.469c-0.804,0.672 -1.547,1.253 -2.126,1.455c-0.579,0.202 -1.043,-0.029 -1.231,-0.783c-0.599,-2.397 0,-4.916 0,-7.386c0,-2.987 1.573,-4.936 2.798,-7.386c1.196,-2.393 1.455,-3.997 1.455,-6.939c0,-1.142 0.128,-2.805 0,-4.14c-0.129,-1.336 -0.565,-2.351 -1.903,-2.351c-2.09,0 -6.461,-0.53 -7.834,-1.902c-0.858,-0.859 -1.066,-1.448 -1.119,-2.238c-0.053,-0.791 -0.016,-1.708 -0.335,-3.246c-0.991,-4.773 -0.507,-9.615 -0.896,-14.436c-0.143,-1.781 -0.873,-2.297 -1.79,-2.574c-0.918,-0.277 -1.98,-0.301 -2.798,-1.119c-1.877,-1.877 -5.658,-2.301 -7.946,-4.589c-1.103,-1.103 -5.747,-6.938 -7.386,-6.938c-1.133,0 -2.424,-0.163 -3.581,-0.112c-1.157,0.051 -2.187,0.285 -2.91,1.007c-0.824,0.825 -2.281,1.825 -3.581,2.91c-1.299,1.085 -2.462,2.261 -2.462,3.581c0,1.699 -0.564,2.764 -1.455,3.693c-0.891,0.93 -2.065,1.73 -3.133,2.798c-2.342,2.342 -3.83,4.352 -4.588,7.386c-0.393,1.572 -1.592,4.39 -2.798,5.596c-1.02,1.019 -7.22,2.35 -9.289,2.35c-0.756,-7.189 -0.931,-2.243 -1.455,-7.946c-2.312,-0.578 -6.141,-0.273 -8.281,-1.343c-0.864,-0.432 -1.86,-1.219 -2.686,-2.126c-0.826,-0.907 -1.455,-1.985 -1.455,-3.022c0,-3.164 0.39,-5.48 1.791,-8.281c0.51,-1.021 0.788,-2.068 0.559,-3.022c-0.228,-0.953 -0.902,-1.85 -2.35,-2.574c-1.396,-0.698 -2.329,-1.706 -3.245,-2.574c-0.916,-0.867 -1.819,-1.566 -3.246,-1.566c-2.396,0 -4.807,-0.085 -6.938,0.447c-1.843,0.461 -3.928,0.164 -5.148,1.791c-1.022,1.363 -2.255,2.103 -3.693,2.686c-1.438,0.582 -3.023,1.075 -4.588,2.014c-3.408,2.045 -3.441,3.44 -5.596,5.596c-2.045,2.045 -4.715,4.372 -7.834,5.931c-3.47,1.735 -7.898,4.139 -10.183,5.148c-0.529,0.48 -1.039,0.975 -1.567,1.455c0.413,0.165 0.821,0.145 1.231,0.335c2.569,1.194 5.061,2.778 7.274,4.589c2.213,1.81 4.174,3.855 5.596,5.931c1.421,2.076 2.377,4.276 2.573,6.267c-1.114,2.23 -2.7,2.728 -4.252,3.357c-1.552,0.629 -3.071,1.33 -4.253,3.693c-0.282,0.565 -1.137,3.454 -1.566,6.379c-0.43,2.926 -0.491,5.854 0.783,6.491c1.15,0.575 3.167,2.424 4.476,4.812c0.655,1.194 1.093,2.496 1.231,3.917c0.139,1.421 -0.035,2.98 -0.783,4.476c-1.01,2.02 -1.912,3.769 -2.35,5.708c-0.438,1.939 -0.455,4 0.224,6.715c0.647,2.587 1.309,3.701 2.238,4.7c0.929,0.998 2.119,1.895 4.141,3.917c1.838,1.838 3.336,3.986 5.147,5.483c0.906,0.749 1.845,1.385 3.022,1.679c1.177,0.293 2.619,0.296 4.253,-0.112c4.909,-1.227 7.428,-3.267 11.415,-5.26c1.555,-0.777 4.787,-2.258 8.057,-3.581c3.27,-1.323 6.584,-2.462 8.505,-2.462c3.814,0 4.412,0.347 4.812,0.895c0.401,0.549 0.572,1.262 3.582,2.015c1.976,0.494 3.721,2.341 4.588,4.7c0.31,0.842 -0.194,1.855 -0.112,2.798l0,0Z" style="fill:none;stroke-width:1px;stroke:#000;"/><path id="path3292" d="M433.862,208.925c-0.422,0.048 -0.831,0.194 -1.231,0.336c-0.857,0.304 -1.32,0.838 -2.015,1.343c0.069,0.583 0.266,1.044 0.112,1.791c-1.116,5.416 -8.477,14.991 -13.317,19.025c-7.416,6.178 -4.199,17.132 -2.35,28.201c0.601,3.599 8.145,17.144 19.696,20.032c2.926,0.732 20.504,-5.641 26.97,-1.119c0.403,-0.121 0.451,-0.091 0.896,-0.224c4.925,-2.058 8.529,-3.251 12.869,-4.364c4.341,-1.114 9.445,-2.15 17.346,-4.141c-2.505,-2.413 -4.261,-5.192 -5.595,-8.282c-1.334,-3.089 -2.269,-6.583 -3.357,-10.519c-2.872,-2.905 -9.283,-8.523 -15.332,-14.66c-3.025,-3.069 -5.927,-6.258 -8.281,-9.289c-2.355,-3.031 -4.104,-5.852 -4.813,-8.281c0.055,-0.296 0.057,-0.6 0.112,-0.896c-1.074,-0.289 -2.183,-0.331 -3.245,-0.671c-2.82,-0.904 -5.564,-1.791 -8.505,-1.791c-1.354,0 -2.711,-0.7 -3.805,-1.455c-1.094,-0.754 -1.981,-1.644 -2.574,-2.238c-0.238,-0.238 -0.297,-0.594 -0.448,-0.895c-0.515,-1.029 -1.151,-1.575 -1.902,-1.791c-0.376,-0.108 -0.81,-0.159 -1.231,-0.112l0,0ZM424.349,278.534c-19.538,10.994 -10.178,6.522 -31.782,21.039c-9.073,9.073 -9.483,15.913 -17.347,26.299c-18.263,8.428 -28.444,10.289 -41.295,17.906c-0.564,7.055 -0.484,13.628 -2.909,14.436c0.218,0.414 0.453,0.817 0.671,1.231c4.814,1.056 9.751,2.332 14.66,3.805c4.91,1.474 9.826,3.191 14.549,5.372c4.723,2.181 9.286,4.768 13.541,7.946c4.255,3.177 8.135,6.95 11.639,11.414c1.906,0 8.869,-5.262 11.527,-5.147c3.954,0.17 5.611,-0.29 6.602,-1.231c0.991,-0.942 1.34,-2.299 2.35,-3.805c4.848,-7.228 2.237,-5.371 2.91,-6.044c1.861,-1.86 2.866,-2.77 3.357,-3.916c0.492,-1.147 0.448,-2.443 0.448,-4.924c0,-1.189 0.867,-2.869 1.903,-4.365c1.035,-1.496 2.284,-2.877 3.245,-3.357c5.284,-2.642 7.547,-4.208 13.205,-5.932c2.469,-0.752 3.294,-1.658 3.917,-2.462c0.623,-0.804 1.045,-1.507 2.462,-1.79c1.947,-0.39 4.159,-0.882 6.155,-1.567c1.997,-0.685 3.803,-1.564 4.924,-2.686c3.365,-3.364 3.902,-2.539 8.058,-5.148c1.602,-1.005 2.427,-1.726 2.91,-2.686c0.482,-0.959 0.599,-2.047 0.895,-3.581c0.317,-1.643 1.468,-3.093 2.686,-4.364c1.218,-1.271 2.46,-2.455 2.798,-3.805c0.748,-5.014 1.99,-9.894 2.574,-14.884c-4.171,-7.796 -7.147,-9.257 -9.625,-14.213c-0.44,-0.88 -0.393,-2.216 -0.671,-3.245c-8.086,1 -24.519,-5.397 -34.133,-10.184c-0.061,-0.031 -0.163,-0.082 -0.224,-0.112l0,0Z" style="fill:none;stroke-width:1px;stroke:#000;"/><path id="path3303" d="M387.083,388.076c0.818,0.819 1.88,1.644 2.798,1.921c0.917,0.277 1.647,0.793 1.79,2.574c0.389,4.821 -0.095,9.663 0.896,14.436c0.319,1.538 0.282,2.455 0.335,3.246c0.053,0.79 0.261,1.379 1.119,2.238c1.373,1.372 5.744,1.902 7.834,1.902c1.338,0 1.774,1.015 1.903,2.351c0.128,1.335 0,2.998 0,4.14c0,2.942 -0.259,4.546 -1.455,6.939c-1.225,2.45 -2.798,4.399 -2.798,7.386c0,2.47 -0.599,4.989 0,7.386c0.188,0.754 0.652,0.985 1.231,0.783c0.579,-0.202 1.322,-0.783 2.126,-1.455c1.61,-1.342 3.513,-3.164 5.036,-3.469c2.38,-0.476 5.5,-3.333 6.939,-3.693c0.644,-0.161 2.39,2.434 4.029,5.148c1.639,2.714 3.145,5.507 3.357,5.931c1.383,2.766 1.507,12.774 3.245,15.78c1.509,2.607 2.51,2.942 3.246,3.357c0.735,0.415 1.256,0.883 1.902,4.029c0.489,2.38 -0.254,4.985 -1.007,6.491c-1.395,2.79 -4.746,5.17 -7.386,6.49c-0.816,0.408 -2.146,-1.084 -3.469,-2.797c-1.324,-1.713 -2.63,-3.637 -3.47,-4.141c-2.011,-1.207 -6.832,-0.361 -9.288,-1.343c-2.502,-1.001 -3.641,-2.41 -5.484,-4.253c-0.972,-0.971 -3.105,-0.525 -5.148,0.224c-2.042,0.749 -4.003,1.834 -4.588,2.127c-2.998,1.498 -5.701,3.018 -7.946,4.14c-2.567,1.284 -7.136,0.56 -10.184,0.56c-2.779,0 -5.502,0 -8.281,0c-1.793,0 -3.655,-2.76 -4.7,-3.805c-0.813,-0.812 -2.34,-0.803 -3.917,-0.56c-1.577,0.244 -3.162,0.817 -3.917,1.119c-1.89,0.757 -4.697,0.894 -6.491,2.239c-0.247,0.185 -0.586,0 -0.895,0c-1.174,0.427 -1.544,0.722 -2.574,1.119c0.148,1.697 0.599,3.389 -0.224,5.036c-2.772,5.544 -4.757,8.898 -8.393,12.534c-4.339,4.339 -4.308,4.504 -10.967,7.833c-1.393,0.697 -3.637,1.58 -5.484,2.798c-0.923,0.61 -1.745,1.281 -2.35,2.127c-0.606,0.845 -1.007,1.869 -1.007,3.021c0,2.991 1.039,4.928 1.902,6.603c0.863,1.674 1.561,3.003 1.231,4.588c0.016,0.017 -0.015,0.095 0,0.112c0.213,0.234 0.641,0.275 0.784,0.56c0.874,1.749 2.222,3.99 3.916,5.819c1.695,1.829 3.845,3.245 6.267,3.245c2.225,0 3.62,0.315 4.589,0.784c0.969,0.468 1.402,1.001 1.79,1.678c0.389,0.677 0.747,1.389 1.231,2.015c0.485,0.625 1.206,1.252 2.462,1.567c3.787,0.946 8.618,2.797 13.765,2.797c2.785,0 6.695,0.404 10.296,0.336c1.801,-0.034 3.545,-0.219 5.036,-0.559c1.491,-0.341 2.742,-0.839 3.581,-1.679c2.731,-2.731 6.21,-5.258 9.065,-9.065c1.293,-1.724 3.175,-4.169 5.484,-6.155c2.309,-1.986 5.023,-3.469 7.722,-3.469c6.384,0 6.478,-2.35 12.534,-2.35c5.709,0 11.413,0 17.122,0c3.134,0 6.542,0.388 9.736,1.231c3.194,0.842 6.171,2.138 8.393,3.805c2.571,1.928 4.723,4.488 7.051,6.826c2.328,2.339 4.828,4.453 8.057,5.26c5.667,1.417 10.841,2.014 17.123,2.014c1.98,0 3.453,0.669 4.924,1.343c0.093,-1.855 -0.133,-3.268 0.224,-3.917c0.397,-0.722 1.55,-0.783 4.476,-0.783c1.944,0 3.419,0.664 4.7,1.679c1.282,1.015 2.382,2.381 3.469,3.469c2.652,2.651 6.588,4.797 8.618,6.826c1.216,1.217 3.324,1.319 5.259,1.679c-1.727,-1.933 -5.638,-5.881 -5.707,-6.155c-1.99,-7.959 5.107,-8.147 -4.588,-21.151c12.901,-7.712 19.944,-10.868 37.602,-10.855c-7.374,-10.831 -9.075,-14.182 -6.156,-14.884c3.128,-0.753 15.612,4.298 22.383,8.617c5.01,3.195 14.873,7.322 23.837,12.198c2.948,-5.408 3.941,-9.013 7.162,-10.184c3.716,-1.351 12.47,3.278 27.754,-4.364c1.787,-0.894 13.006,-14.424 30.104,-10.632c11.919,-11.553 7.881,-7.176 18.465,-18.801c-1.796,-3.591 -12.426,-13.867 -28.761,-29.432c9.74,-8.923 17.482,-13.249 23.501,-16.339c-1.613,-0.097 -2.605,-0.371 -4.252,-0.448c-7.201,-0.337 -14.419,-0.534 -18.466,-1.343c-1.445,-0.289 -2.89,-1.303 -4.14,-2.574c-1.25,-1.271 -2.217,-2.824 -2.574,-4.253c-0.308,-1.229 -0.853,-2.098 -1.567,-2.797c-0.714,-0.699 -1.598,-1.252 -2.686,-1.903c-2.461,-1.473 -5.211,-2.215 -8.058,-2.574c-2.846,-0.359 -5.791,-0.38 -8.952,-0.447c-9.25,-0.199 -11.586,-0.589 -12.422,-1.679c-0.419,-0.545 -0.492,-1.229 -0.896,-2.126c-0.403,-0.897 -1.129,-2.022 -2.909,-3.358c-2.634,-1.975 -3.374,-3.339 -3.805,-4.812c-0.432,-1.473 -0.51,-3.034 -1.679,-5.372c-0.263,-0.526 -0.831,-1.285 -2.014,-1.902c-1.184,-0.617 -2.942,-1.136 -5.596,-1.119c-1.861,0.011 -3.976,-0.443 -5.707,-0.224c-0.866,0.109 -1.599,0.454 -2.239,1.007c-0.639,0.553 -1.17,1.316 -1.454,2.574c-0.215,0.949 -1.085,1.658 -2.351,2.126c-1.265,0.469 -2.944,0.703 -4.7,0.784c-3.512,0.161 -7.408,-0.277 -9.512,-1.119c-1.985,-0.794 -3.87,-0.192 -5.708,0.224c-0.919,0.207 -1.91,0.34 -2.797,0.223c-0.888,-0.116 -1.716,-0.484 -2.574,-1.343c-1.829,-1.828 -2.894,-1.997 -4.701,-3.804c-1.193,-1.194 -3.37,-4.016 -5.707,-6.715c-2.337,-2.699 -4.815,-5.277 -6.603,-6.043c-1.693,-0.726 -2.716,-1.324 -3.469,-2.127c-0.753,-0.802 -1.281,-1.877 -1.679,-3.469c-0.244,-0.976 -1.024,-2.575 -1.678,-4.252c-0.655,-1.678 -1.094,-3.347 -0.784,-4.589c0.473,-1.892 1.204,-4.337 2.91,-6.043c2.218,-2.218 7.465,-6.76 8.505,-8.841c0.319,-0.637 0.163,-1.332 -0.336,-2.014c-0.498,-0.683 -1.302,-1.41 -2.126,-2.127c-1.647,-1.432 -3.469,-2.866 -3.469,-4.364c0,-1.469 1.083,-2.064 2.014,-2.574c0.932,-0.51 1.756,-0.96 1.007,-2.126c-1.964,-3.06 -4.351,-5.911 -6.378,-8.953c-0.735,-1.102 -1.028,-2.973 -1.343,-4.7c-0.316,-1.728 -0.698,-3.315 -1.679,-3.805c-3.036,-1.518 -5.98,-2.574 -9.401,-2.574c-1.457,0 -7.017,1.988 -7.609,3.469c-0.099,0.247 -0.063,1.241 -0.56,2.462c-0.497,1.221 -1.529,2.67 -3.693,3.917c-4.304,-4.68 -8.408,-7.377 -12.198,-10.967c-1.896,-1.796 -3.756,-3.906 -5.484,-6.491c-1.728,-2.586 -3.278,-5.652 -4.812,-9.737c0,-2.394 0,-6.17 0,-7.274c-0.182,-0.117 -0.378,-0.218 -0.56,-0.335c-0.769,0.913 -2.635,0.919 -4.252,1.119c0.278,1.029 0.231,2.365 0.671,3.245c2.478,4.956 5.454,6.417 9.625,14.213c-0.584,4.99 -1.826,9.87 -2.574,14.884c-0.338,1.35 -1.58,2.534 -2.798,3.805c-1.218,1.271 -2.369,2.721 -2.686,4.364c-0.296,1.534 -0.413,2.622 -0.895,3.581c-0.483,0.96 -1.308,1.681 -2.91,2.686c-4.156,2.609 -4.693,1.784 -8.058,5.148c-1.121,1.122 -2.927,2.001 -4.924,2.686c-1.996,0.685 -4.208,1.177 -6.155,1.567c-1.417,0.283 -1.839,0.986 -2.462,1.79c-0.623,0.804 -1.448,1.71 -3.917,2.462c-5.658,1.724 -7.921,3.29 -13.205,5.932c-0.961,0.48 -2.21,1.861 -3.245,3.357c-1.036,1.496 -1.903,3.176 -1.903,4.365c0,2.481 0.044,3.777 -0.448,4.924c-0.491,1.146 -1.496,2.056 -3.357,3.916c-0.673,0.673 1.938,-1.184 -2.91,6.044c-1.01,1.506 -1.359,2.863 -2.35,3.805c-0.991,0.941 -2.648,1.401 -6.602,1.231c-7.84,6.692 -8.835,3.19 -10.52,5.241l0,0Z" style="fill:none;stroke-width:1px;stroke:#000;"/><path id="path3289" d="M462.958,287.711c0.182,0.117 0.378,0.218 0.56,0.335c0,1.104 0,4.88 0,7.274c1.534,4.085 3.084,7.151 4.812,9.737c1.728,2.585 3.588,4.695 5.484,6.491c3.79,3.59 7.894,6.287 12.198,10.967c2.164,-1.247 3.196,-2.696 3.693,-3.917c0.497,-1.221 0.461,-2.215 0.56,-2.462c0.592,-1.481 6.152,-3.469 7.609,-3.469c3.421,0 6.365,1.056 9.401,2.574c0.981,0.49 1.363,2.077 1.679,3.805c0.315,1.727 0.608,3.598 1.343,4.7c2.027,3.042 4.414,5.893 6.378,8.953c0.749,1.166 -0.075,1.616 -1.007,2.126c-0.931,0.51 -2.014,1.105 -2.014,2.574c0,1.498 1.822,2.932 3.469,4.364c0.824,0.717 1.628,1.444 2.126,2.127c0.499,0.682 0.655,1.377 0.336,2.014c-1.04,2.081 -6.287,6.623 -8.505,8.841c-1.706,1.706 -2.437,4.151 -2.91,6.043c-0.31,1.242 0.129,2.911 0.784,4.589c0.654,1.677 1.434,3.276 1.678,4.252c0.398,1.592 0.926,2.667 1.679,3.469c0.753,0.803 1.776,1.401 3.469,2.127c1.788,0.766 4.266,3.344 6.603,6.043c2.337,2.699 4.514,5.521 5.707,6.714c1.807,1.808 2.872,1.977 4.701,3.805c0.858,0.859 1.686,1.227 2.574,1.343c0.887,0.117 1.878,-0.016 2.797,-0.223c1.838,-0.416 3.723,-1.018 5.708,-0.224c2.104,0.842 6,1.28 9.512,1.119c1.756,-0.081 3.435,-0.315 4.7,-0.784c1.266,-0.468 2.136,-1.177 2.351,-2.126c0.284,-1.258 0.815,-2.021 1.454,-2.574c0.64,-0.553 1.373,-0.898 2.239,-1.007c1.731,-0.219 3.846,0.235 5.707,0.224c2.654,-0.017 4.412,0.502 5.596,1.119c1.183,0.617 1.751,1.376 2.014,1.902c1.169,2.338 1.247,3.899 1.679,5.372c0.431,1.473 1.171,2.837 3.805,4.812c1.78,1.336 2.506,2.461 2.909,3.358c0.404,0.897 0.477,1.581 0.896,2.126c0.836,1.09 3.172,1.48 12.422,1.679c3.161,0.067 6.106,0.088 8.952,0.447c2.847,0.359 5.597,1.101 8.058,2.574c1.088,0.651 1.972,1.204 2.686,1.903c0.714,0.699 1.259,1.568 1.567,2.797c0.357,1.429 1.324,2.982 2.574,4.253c1.25,1.271 2.695,2.285 4.14,2.574c4.047,0.809 11.265,1.006 18.466,1.343c1.647,0.077 2.639,0.351 4.252,0.448c3.929,-2.018 7.685,-3.764 8.841,-5.036c3.446,-3.795 9.724,-17.371 17.794,-18.578c4.733,-0.707 -2.033,-12.268 18.353,-15.443c-7.361,-6.28 -5.979,-12.326 -6.043,-16.003c-0.348,-19.929 7.254,-22.408 2.238,-28.65c-10.154,-12.635 -12.552,-21.645 -17.01,-20.815c-4.458,0.83 -7.855,9.629 -12.087,6.155c-6.117,-5.022 -17.52,-3.752 -23.389,-3.917c-17.848,-0.501 -20.182,-27.224 -10.296,-28.537c9.911,-1.316 -0.448,-8.445 -2.126,-19.92c-2.091,-0.732 -4.168,-1.371 -5.707,-2.91c-1.754,-1.753 -2.514,-3.129 -3.805,-4.029c-1.291,-0.899 -3.042,-1.342 -6.827,-1.342c-2.419,0 -4.247,-0.594 -6.938,-1.008c-2.692,-0.413 -6.231,-0.583 -12.311,0c-2.175,4.741 -2.668,4.72 -2.909,5.148c-0.242,0.429 -0.316,1.222 -1.455,7.61c-1.847,0 -6.728,0.062 -11.415,-0.336c-2.343,-0.198 -4.696,-0.554 -6.491,-1.007c-1.794,-0.453 -3.064,-0.98 -3.469,-1.79c-1.635,-3.271 -2.516,-4.302 -3.917,-4.924c-1.401,-0.623 -3.363,-0.843 -6.826,-2.574c-3.662,-1.831 -9.292,-3.079 -13.877,-5.372c-2.099,-1.049 -5.031,-0.588 -7.722,-0.336c-1.346,0.126 -2.618,0.234 -3.693,0c-1.075,-0.233 -1.938,-0.741 -2.462,-1.79c-1.294,-2.589 -4.946,-6.535 -6.491,-9.625c-1.412,-2.824 -1.868,-5.276 -1.791,-7.498c0.078,-2.221 0.689,-4.287 1.791,-6.491c1.151,-2.301 8.616,-6.355 10.743,-9.512c-1.046,-2.778 -2.131,-4.954 -3.357,-6.715c-1.226,-1.76 -2.55,-3.1 -3.917,-4.364c-2.734,-2.529 -5.659,-4.617 -8.729,-8.281c-0.283,-0.385 -0.612,-0.736 -0.895,-1.12c-3.309,2.849 -7.174,6.273 -10.296,7.834c-1.906,0.953 -4.858,1.388 -7.722,1.343c-2.863,-0.045 -5.616,-0.57 -7.162,-1.343c-2.192,-1.096 0.797,-0.646 -2.686,-1.343c-1.348,-0.269 -3.384,0.241 -5.372,1.007c-1.988,0.767 -3.947,1.87 -5.036,2.686c-0.602,0.452 -1.188,0.892 -1.79,1.343c-1.581,1.186 -3.746,1.746 -6.043,2.015c-2.298,0.268 -4.727,0.223 -6.603,0.223c-1.834,0 -3.593,-0.64 -5.372,-1.119c-0.055,0.296 -0.057,0.6 -0.112,0.896c0.709,2.429 2.458,5.25 4.813,8.281c2.354,3.031 5.256,6.22 8.281,9.289c6.049,6.137 12.46,11.755 15.332,14.66c1.088,3.936 2.023,7.43 3.357,10.519c1.334,3.09 3.09,5.869 5.595,8.282c-7.901,1.991 -13.005,3.027 -17.346,4.141c-4.34,1.113 -7.944,2.306 -12.869,4.364c-0.445,0.133 -0.493,0.103 -0.896,0.224c2.007,1.403 3.065,3.769 2.127,7.834c-0.134,0.581 -0.549,0.931 -0.896,1.343l0,0Z" style="fill:none;stroke-width:1px;stroke:#000;"/><path id="path3286" d="M513.654,205.232c0.283,0.384 0.612,0.735 0.895,1.12c3.07,3.664 5.995,5.752 8.729,8.281c1.367,1.264 2.691,2.604 3.917,4.364c1.226,1.761 2.311,3.937 3.357,6.715c-2.127,3.157 -9.592,7.211 -10.743,9.512c-1.102,2.204 -1.713,4.27 -1.791,6.491c-0.077,2.222 0.379,4.674 1.791,7.498c1.545,3.09 5.197,7.037 6.491,9.625c0.524,1.049 1.387,1.557 2.462,1.79c1.075,0.234 2.347,0.126 3.693,0c2.691,-0.252 5.623,-0.713 7.722,0.336c4.585,2.293 10.215,3.541 13.877,5.372c3.463,1.731 5.425,1.951 6.826,2.574c1.401,0.622 2.282,1.653 3.917,4.924c0.405,0.81 1.675,1.337 3.469,1.79c1.795,0.453 4.148,0.809 6.491,1.007c4.687,0.398 9.568,0.336 11.415,0.336c1.139,-6.388 1.213,-7.181 1.455,-7.61c0.241,-0.428 0.734,-0.407 2.909,-5.148c6.08,-0.583 9.619,-0.413 12.311,0c2.691,0.414 4.519,1.008 6.938,1.008c3.785,0 5.536,0.443 6.827,1.342c1.291,0.9 2.051,2.276 3.805,4.029c1.539,1.539 3.616,2.178 5.707,2.91c-0.121,-0.83 -0.544,-1.474 -0.559,-2.35c13.823,-3.346 41.369,-2.108 64.46,-2.798c-1.024,-23.579 -1.776,-37.197 -1.902,-42.078c-0.148,-5.731 0.2,-10.392 0.783,-14.437c-1.656,-3.92 -4.243,-9.539 -5.148,-12.198c-1.851,-5.439 -2.238,-8.781 -2.238,-12.534c-5.342,-8.296 -10.508,-15.407 -15.556,-21.711c-5.048,-6.303 -10.049,-11.803 -15.108,-16.898c-10.118,-10.191 -20.575,-18.803 -32.566,-28.873c-3.505,1.719 -5.479,3.405 -6.714,4.812c-1.236,1.407 -1.679,2.535 -2.015,3.133c-0.335,0.598 -0.537,0.707 -1.343,0c-0.805,-0.706 -2.28,-2.194 -4.924,-4.7c-2.821,-5.363 -5.812,-9.523 -9.96,-13.765c-4.148,-4.242 -9.444,-8.493 -16.786,-13.989c-3.18,2.162 -6.318,4.675 -9.289,7.61c-2.971,2.935 -5.775,6.22 -8.057,9.737c-2.283,3.516 -4.035,7.283 -5.148,11.191c-1.114,3.907 -1.543,7.979 -1.008,12.086c-0.087,0.14 -0.136,0.307 -0.223,0.448c0.752,0.751 1.607,1.831 2.574,2.797c0.891,0.892 1.234,1.889 1.342,2.798c0.108,0.909 -0.11,1.728 -0.335,2.686c-0.45,1.915 -1.033,3.966 -0.112,6.267c0.933,2.333 1.272,4.339 1.902,6.155c0.63,1.816 1.502,3.453 3.47,5.148c4.516,3.892 6.425,4.599 7.498,4.812c1.072,0.213 1.332,-0.016 2.462,2.014c-1.635,2.748 -2.16,4.342 -3.246,5.932c-1.086,1.589 -2.756,3.18 -6.714,5.819c-2.876,1.917 -4.714,4.464 -6.491,5.819c-0.889,0.678 -1.7,1.036 -2.686,0.896c-0.986,-0.141 -2.137,-0.828 -3.469,-2.238c-1.707,-1.807 -2.345,-2.35 -3.134,-2.463c-0.789,-0.113 -1.776,0.224 -4.141,0.224c-1.839,0 -3.903,1.436 -6.267,3.358c-2.363,1.921 -5.011,4.354 -7.721,6.155c-4.003,2.66 -9.343,8.919 -12.646,11.75c-0.44,0.377 -0.986,0.715 -1.455,1.119l0,0Z" style="fill:none;stroke-width:1px;stroke:#000;"/><path id="path3283" d="M552.823,136.184c0.087,-0.141 0.136,-0.308 0.223,-0.448c-0.535,-4.107 -0.106,-8.179 1.008,-12.086c1.113,-3.908 2.865,-7.675 5.148,-11.191c2.282,-3.517 5.086,-6.802 8.057,-9.737c2.971,-2.935 6.109,-5.448 9.289,-7.61c7.342,5.496 12.638,9.747 16.786,13.989c4.148,4.242 7.139,8.402 9.96,13.765c2.644,2.506 4.119,3.994 4.924,4.7c0.806,0.707 1.008,0.598 1.343,0c0.336,-0.598 0.779,-1.726 2.015,-3.133c1.235,-1.407 3.209,-3.093 6.714,-4.812c11.991,10.07 22.448,18.682 32.566,28.873c5.059,5.095 10.06,10.595 15.108,16.898c5.048,6.304 10.214,13.415 15.556,21.711c0,3.753 0.387,7.095 2.238,12.534c0.905,2.659 3.492,8.278 5.148,12.198c1.803,-12.511 6.419,-18.189 10.184,-23.725c6.904,-10.152 10.967,-22.353 10.967,-33.237c0,-16.643 -2.091,-30.606 -4.7,-45.436c-0.743,-4.221 6.399,-12.926 6.267,-17.57c-0.078,-2.725 -2.698,-9.957 -12.087,-9.736c-8.252,0.194 -12.182,-3.902 -13.093,-7.834c-3.885,-16.754 -6.129,-10.526 -18.577,-13.541c-16.982,-4.113 -13.45,-10.002 -20.368,-23.837c-3.408,-6.817 -2.468,-15.841 -10.632,-17.123c-5.644,-0.886 -11.58,-1.071 -17.234,-0.559c-5.653,0.512 -11.088,1.727 -15.443,3.469c-14.748,5.899 -17.132,8.17 -31.223,8.17c-10.28,0 -19.699,0.448 -29.209,4.252c-2.147,0.859 -5.265,0.843 -8.505,0.784c-1.037,1.883 -1.883,3.906 -3.358,5.595c-1.137,2.04 -2.907,4.322 -3.917,6.155c-0.504,0.917 -0.768,1.657 -0.783,2.238c-0.015,0.582 0.226,0.951 1.007,1.008c3.052,0.221 5.661,0.963 8.058,2.686c2.397,1.722 4.672,4.434 6.938,8.617c-2.722,4.867 -5.114,9.274 -7.274,12.757c-2.16,3.484 -4.08,6.087 -6.267,7.61c1.394,3.623 1.87,6.612 2.126,9.401c0.257,2.789 0.268,5.33 0.56,8.169c0,1.433 -0.907,2.657 -2.126,3.805c-1.22,1.149 -2.826,2.265 -4.253,3.47c-1.427,1.204 -2.622,2.541 -3.245,4.14c-0.624,1.599 -0.633,3.487 0.559,5.82c1.249,2.444 2.769,3.591 4.477,4.252c1.707,0.662 3.644,0.824 5.707,1.007c2.064,0.184 4.286,0.444 6.603,1.455c2.316,1.011 4.695,2.788 7.162,5.931c2.568,3.273 3.949,4.511 5.596,6.156l0,0Z" style="fill:none;stroke-width:1px;stroke:#000;"/><path id="path2457" d="M105.944,585.006c-5.824,-5.632 -22.696,-5.806 -35.607,-5.806c-15.748,0 -13.316,20.548 2.949,20.548c12.151,0 17.827,0.446 29.979,0.446c8.647,0 6.215,-11.769 2.679,-15.188ZM170.536,570.173c-0.042,-0.144 -0.066,-0.305 -0.112,-0.448c-6.126,-3.048 -10.685,-8.343 -16.787,-11.191c5.762,5.391 4.002,1.795 -0.559,0.224c-4.21,8.15 -8.257,9.146 -2.686,17.458c3.946,5.887 -0.05,4.344 -14.772,4.253c-11.039,-0.068 -16.036,1.88 -8.282,13.989c4.55,7.104 31.819,12.789 32.79,16.674c1.257,5.028 0.396,6.689 0.56,18.913c-17.813,0.674 -17.865,-4.949 -32.231,-18.017c-7.09,-6.451 -12.039,-10.902 -15.107,-10.744c-10.963,0.565 -20.802,0.784 -37.714,0.784c-10.138,0 -11.481,1.005 -19.361,-9.177c-6.985,-9.026 -5.564,-8.913 -17.01,-10.855c-4.331,4.331 -12.341,9.318 -24.845,18.353c8.476,8.475 25.348,30.493 36.483,27.194c10.797,-3.198 11.459,-4.992 18.242,1.791c1.432,1.432 22.819,22.057 25.18,19.696c4.696,-4.696 7.404,-8.49 19.808,-22.27c10.75,6.229 18.365,8.936 27.418,14.324c7.026,4.182 21.77,1.959 27.642,8.953c0.736,0.877 3.234,1.934 6.155,2.91c0.003,-0.045 -0.003,-0.18 0,-0.224c-1.289,-13.514 -1.917,-21.535 -3.469,-30.216c-1.552,-8.68 -4,-18.026 -9.065,-34.356c-0.541,-1.744 -0.566,-3.867 -0.112,-6.044c0.454,-2.176 1.39,-4.461 2.574,-6.49c1.184,-2.03 2.604,-3.732 4.253,-5.036c0.314,-0.249 0.678,-0.237 1.007,-0.448l0,0ZM125.557,579.332c11.222,-7.148 30.707,-10.032 6.57,-26.89c-4.103,-2.867 -5.776,-5.046 -16.755,-8.895c-10.658,-3.736 -12.694,-3.702 -22.966,-3.8c-18.105,-0.172 -34.062,5.21 -29.214,15.995c7.355,16.365 18.771,-5.04 25.732,-0.844c18.464,11.13 20.613,21.654 36.633,24.434ZM145.393,654.744c-10.21,-6.029 -14.998,-15.018 -23.008,-14.208c-7.822,0.791 -13.878,18.592 -26.758,18.629c-7.283,0.02 -13.461,0.4 -27.75,-6.745c-9.872,-4.935 -14.35,-7.833 -26.27,-10.813c-12.384,-3.096 -33.857,4.331 -37.522,11.661c-7.121,14.242 2.083,34.173 23.45,34.173c12.719,0 12.325,-13.625 23.458,-15.094c5.079,-0.67 26.303,12.094 27.205,13.671c6.307,11.031 15.714,15.249 28.995,15.052c15.02,-0.223 17.732,-4.781 31.312,-15.147c11.038,-8.426 9.613,-8.616 14.617,-13.265c7.929,-7.369 15.816,-14.016 15.816,-19.791c0,-8.492 -15.678,-7.862 -23.545,1.877l0,0Z" style="fill:none;stroke-width:1px;stroke:#000;"/><path id="path3295" d="M377.459,379.589c-1.064,-0.916 -1.907,-2.188 -3.022,-3.021c-4.255,-3.178 -8.818,-5.765 -13.541,-7.946c-4.723,-2.181 -9.639,-3.898 -14.549,-5.372c-4.909,-1.473 -9.846,-2.749 -14.66,-3.805c-0.218,-0.414 -0.453,-0.817 -0.671,-1.231c-0.175,0.059 -0.245,0.342 -0.448,0.336c-2.068,-0.065 -8.978,0.05 -25.851,-7.05c13.008,-9.235 20.253,-13.992 20.256,-17.235c0.006,-7.296 -3.057,-4.723 -3.246,-9.288c-0.289,-6.976 5.678,-3.822 5.484,-14.996c-0.178,-10.617 -14.245,-23.14 -12.646,-30.552c7.155,-8.997 10.071,-9.289 22.27,-2.686c6.148,-6.727 14.228,-15.368 22.942,-24.844c5.116,-5.564 -0.031,-24.452 -18.354,-15.891c-12.319,5.756 -11.303,-4.099 -11.303,-22.606c0,-15.07 -8.563,-32.902 -19.248,-32.902c-11.291,0 -24.695,15.482 -32.678,7.498c-6.259,-6.259 -3.858,-16.674 -12.086,-16.674c-8.813,0 -12.934,12.342 -14.996,20.591c-10.4,76.813 -12.622,92.285 -29.769,152.646c-2.044,7.196 -4.642,13.05 -7.05,19.361c0.085,0.041 0.253,0.07 0.336,0.112c4.067,2.033 18.282,3.489 22.717,5.707c-3.539,5.76 -5.544,8.713 -6.49,11.751c-0.947,3.038 -0.838,6.168 -0.112,12.198c1.233,1.645 3.098,3.168 5.595,3.917c1.249,0.374 2.646,0.587 4.141,0.447c1.495,-0.139 3.118,-0.607 4.812,-1.454c3.179,-2.322 6.105,-5.069 9.177,-7.61c3.072,-2.542 6.29,-4.909 10.072,-6.267c0,0.858 -0.753,4.461 -1.007,7.833c-0.128,1.687 -0.067,3.336 0.223,4.589c0.291,1.253 0.762,2.125 1.791,2.238c2.094,0.19 4.312,0.917 6.491,1.791c0.528,-0.48 1.038,-0.975 1.567,-1.455c2.285,-1.009 6.713,-3.413 10.183,-5.148c3.119,-1.559 5.789,-3.886 7.834,-5.931c2.155,-2.156 2.188,-3.551 5.596,-5.596c1.565,-0.939 3.15,-1.432 4.588,-2.014c1.438,-0.583 2.671,-1.323 3.693,-2.686c1.22,-1.627 3.305,-1.33 5.148,-1.791c2.131,-0.532 4.542,-0.447 6.938,-0.447c1.427,0 2.33,0.699 3.246,1.566c0.916,0.868 1.849,1.876 3.245,2.574c1.448,0.724 2.122,1.621 2.35,2.574c0.229,0.954 -0.049,2.001 -0.559,3.022c-1.401,2.801 -1.791,5.117 -1.791,8.281c0,1.037 0.629,2.115 1.455,3.022c0.826,0.907 1.822,1.694 2.686,2.126c2.14,1.07 5.969,0.765 8.281,1.343c0.524,5.703 0.699,0.757 1.455,7.946c2.069,0 8.269,-1.331 9.289,-2.35c1.206,-1.206 2.405,-4.024 2.798,-5.596c0.758,-3.034 2.246,-5.044 4.588,-7.386c1.068,-1.068 2.242,-1.868 3.133,-2.798c0.891,-0.929 1.455,-1.994 1.455,-3.693c0,-1.32 1.163,-2.496 2.462,-3.581c1.3,-1.085 2.757,-2.085 3.581,-2.91c0.723,-0.722 1.753,-0.956 2.91,-1.007c1.157,-0.051 2.448,0.112 3.581,0.112c1.278,1.595 3.74,1.688 5.708,2.238l0,0ZM260.019,168.934c4.908,5.412 21.506,-15.808 27.427,-22.784c6.401,-7.542 9.295,-21.148 3.838,-33.184c-4.902,-10.812 -14.584,-14.319 -18.484,-4.008c-4.078,10.783 -14.842,28.52 -20.78,40.396c-4.754,9.508 2.219,13.207 7.999,19.58l0,0Z" style="fill:none;stroke-width:1px;stroke:#000;"/><path id="path2453" d="M430.616,210.604c0.695,-0.505 1.158,-1.039 2.015,-1.343c0.801,-0.284 1.711,-0.44 2.462,-0.224c0.751,0.216 1.387,0.762 1.902,1.791c0.151,0.301 0.21,0.657 0.448,0.895c0.593,0.594 1.48,1.484 2.574,2.238c1.094,0.755 2.451,1.455 3.805,1.455c2.941,0 5.685,0.887 8.505,1.791c2.82,0.903 5.675,1.79 8.617,1.79c1.876,0 4.305,0.045 6.603,-0.223c2.297,-0.269 4.462,-0.829 6.043,-2.015c0.602,-0.451 1.188,-0.891 1.79,-1.343c1.089,-0.816 3.048,-1.919 5.036,-2.686c1.988,-0.766 4.024,-1.276 5.372,-1.007c3.483,0.697 0.494,0.247 2.686,1.343c1.546,0.773 4.299,1.298 7.162,1.343c2.864,0.045 5.816,-0.39 7.722,-1.343c3.565,-1.782 8.215,-5.922 11.751,-8.953c3.303,-2.831 8.643,-9.09 12.646,-11.75c2.71,-1.801 5.358,-4.234 7.721,-6.155c2.364,-1.922 4.428,-3.358 6.267,-3.358c2.365,0 3.352,-0.337 4.141,-0.224c0.789,0.113 1.427,0.656 3.134,2.463c1.332,1.41 2.483,2.097 3.469,2.238c0.986,0.14 1.797,-0.218 2.686,-0.896c1.777,-1.355 3.615,-3.902 6.491,-5.819c3.958,-2.639 5.628,-4.23 6.714,-5.819c1.086,-1.59 1.611,-3.184 3.246,-5.932c-1.13,-2.03 -1.39,-1.801 -2.462,-2.014c-1.073,-0.213 -2.982,-0.92 -7.498,-4.812c-1.968,-1.695 -2.84,-3.332 -3.47,-5.148c-0.63,-1.816 -0.969,-3.822 -1.902,-6.155c-0.921,-2.301 -0.338,-4.352 0.112,-6.267c0.225,-0.958 0.443,-1.777 0.335,-2.686c-0.108,-0.909 -0.451,-1.906 -1.342,-2.798c-3.082,-3.082 -4.428,-4.184 -8.17,-8.953c-2.467,-3.143 -4.846,-4.92 -7.162,-5.931c-2.317,-1.011 -4.539,-1.271 -6.603,-1.455c-2.063,-0.183 -4,-0.345 -5.707,-1.007c-1.708,-0.661 -3.228,-1.808 -4.477,-4.252c-1.192,-2.333 -1.183,-4.221 -0.559,-5.82c0.623,-1.599 1.818,-2.936 3.245,-4.14c1.427,-1.205 3.033,-2.321 4.253,-3.47c1.219,-1.148 2.126,-2.372 2.126,-3.805c-0.292,-2.839 -0.303,-5.381 -0.56,-8.169c-0.256,-2.789 -0.732,-5.778 -2.126,-9.401c2.187,-1.523 4.107,-4.126 6.267,-7.61c2.16,-3.483 4.552,-7.89 7.274,-12.757c-2.266,-4.183 -4.541,-6.895 -6.938,-8.618c-2.397,-1.722 -5.006,-2.464 -8.058,-2.685c-0.781,-0.057 -1.022,-0.426 -1.007,-1.008c0.015,-0.581 0.279,-1.321 0.783,-2.238c1.01,-1.833 2.78,-4.115 3.917,-6.155c1.475,-1.689 2.321,-3.712 3.358,-5.595c-12.458,-0.228 -31.334,-4.889 -47.115,1.454c-11.615,4.669 -17.337,8.997 -32.006,13.654c-14.29,4.536 -18.85,4.335 -32.342,14.548c-8.468,6.409 -32.318,24.124 -36.931,33.349c-4.336,8.673 -5.931,13.872 -5.931,26.635c0,13.627 -7.519,25.781 -1.903,47.674c2.531,9.862 2.367,16.187 -5.931,23.501c4.72,7.519 14.96,12.534 23.054,12.534c8.159,0 18.161,7.803 24.844,1.679c4.93,-4.518 9.194,-3.983 9.624,-0.336l0,0ZM295.45,79.904c-14.97,12.053 -20.781,8.02 -14.907,19.769c3.657,7.314 25.112,-8.556 27.751,-10.125c24.885,-14.787 23.788,-17.154 18.668,-24.344c-5.119,-7.19 -24.131,8.758 -31.512,14.7l0,0ZM330.84,53.934c6.412,15.015 40.288,-9.757 59.594,-15.572c30.703,-9.247 19.525,-25.61 -5.824,-12.129c-23.809,12.662 -58.511,16.6 -53.77,27.701ZM412.194,21.591c15.125,23.007 13.867,1.978 57.594,3.442c7.805,0.379 14.913,-0.012 21.603,-3.357c2.998,-1.499 -12.214,-14.42 -18.758,-12.848c-50.931,12.232 -62.067,-0.655 -60.439,12.763l0,0ZM501.875,21.249c24.294,-1.096 32.937,-5.418 43.771,-9.612c23.583,-9.131 -7.843,-9.534 -18.227,-10.022c-14.726,-0.691 -23.081,8.123 -25.544,19.634Z" style="fill:none;stroke-width:1px;stroke:#000;"/></g></svg>