<?xml version="1.0" encoding="utf-8"?>
<!-- Generator: Adobe Illustrator 19.0.0, SVG Export Plug-In . SVG Version: 6.00 Build 0)  -->
<svg version="1.1" id="Laag_1" xmlns="http://www.w3.org/2000/svg" xmlns:xlink="http://www.w3.org/1999/xlink" x="0px" y="0px"
	 viewBox="0 0 42.5 42.5" style="enable-background:new 0 0 42.5 42.5;" xml:space="preserve">
<style type="text/css">
	.st0{fill:#FFFFFF;}
	.st1{fill:#ADACB2;}
	.st2{fill:#BFBFC1;}
	.st3{fill:#F18641;}
	.st4{fill:#C4A174;}
</style>
<rect id="XMLID_1_" x="0" class="st0" width="42.5" height="42.5"/>
<path id="XMLID_321_" class="st1" d="M40.9,21.5H25v-3.2h16c0.9,0,1.6,0.7,1.6,1.6l0,0C42.5,20.8,41.8,21.5,40.9,21.5z"/>
<path id="XMLID_320_" class="st1" d="M25.5,16.7H0.3v12.9c0,1.7,1.4,3.1,3.1,3.1h18.9c1.7,0,3.1-1.4,3.1-3.1L25.5,16.7L25.5,16.7z"
	/>
<path id="XMLID_319_" class="st2" d="M5.7,29.6V16.7H0.3v12.9c0,1.7,1.4,3.1,3.1,3.1h5.4C7.1,32.7,5.7,31.3,5.7,29.6z"/>
<g id="XMLID_332_">
	<path id="XMLID_313_" class="st3" d="M19.7,37.5l0.9-3l0.9,3c0.2,0.5-0.1,1.1-0.6,1.2c-0.5,0.2-1.1-0.1-1.2-0.6
		C19.7,37.9,19.7,37.7,19.7,37.5z"/>
	<path id="XMLID_312_" class="st3" d="M14.6,37.5l0.9-3l0.9,3c0.2,0.5-0.1,1.1-0.6,1.2c-0.5,0.2-1.1-0.1-1.2-0.6
		C14.5,37.9,14.5,37.7,14.6,37.5z"/>
	<path id="XMLID_311_" class="st3" d="M9.4,37.5l0.9-3l0.9,3c0.2,0.5-0.1,1.1-0.6,1.2c-0.5,0.2-1.1-0.1-1.2-0.6
		C9.3,37.9,9.3,37.7,9.4,37.5z"/>
	<path id="XMLID_310_" class="st3" d="M4.2,37.5l0.9-3l0.9,3C6.2,38,6,38.5,5.4,38.7c-0.5,0.2-1.1-0.1-1.2-0.6
		C4.2,37.9,4.2,37.7,4.2,37.5z"/>
</g>
<rect id="XMLID_304_" x="1.9" y="40" class="st4" width="22.1" height="1.5"/>
<g id="XMLID_328_">
	<path id="XMLID_303_" class="st2" d="M14.7,14.8c0,0-0.1,0-0.1,0c-0.4-0.1-0.7-0.5-0.6-0.9c0.2-0.9,0.6-1.5,1-2
		c0.4-0.5,0.7-0.9,0.7-1.8c0-0.8-0.3-1.2-0.7-1.8c-0.5-0.6-1.1-1.3-1.1-2.7c0-1.4,0.6-2.1,1.1-2.7c0.2-0.3,0.4-0.5,0.6-0.8
		c0.2-0.4,0.6-0.6,1-0.4c0.4,0.2,0.6,0.6,0.4,1c-0.2,0.5-0.5,0.9-0.8,1.2c-0.4,0.5-0.7,0.9-0.7,1.8c0,0.8,0.3,1.2,0.7,1.8
		c0.5,0.6,1.1,1.3,1.1,2.7c0,1.4-0.6,2.1-1.1,2.7c-0.3,0.4-0.6,0.7-0.7,1.3C15.3,14.5,15,14.8,14.7,14.8z"/>
	<path id="XMLID_302_" class="st2" d="M9.4,14.8c0,0-0.1,0-0.1,0c-0.4-0.1-0.7-0.5-0.6-0.9c0.2-0.9,0.6-1.5,1-2
		c0.4-0.5,0.7-0.9,0.7-1.8c0-0.8-0.3-1.2-0.7-1.8C9.2,7.8,8.6,7,8.6,5.6c0-1.4,0.6-2.1,1.1-2.7c0.2-0.3,0.4-0.5,0.6-0.8
		c0.2-0.4,0.6-0.6,1-0.4c0.4,0.2,0.6,0.6,0.4,1c-0.2,0.5-0.5,0.9-0.8,1.2c-0.4,0.5-0.7,0.9-0.7,1.8c0,0.8,0.3,1.2,0.7,1.8
		C11.4,8,12,8.7,12,10.1c0,1.4-0.6,2.1-1.1,2.7c-0.3,0.4-0.6,0.7-0.7,1.3C10.1,14.5,9.8,14.8,9.4,14.8z"/>
</g>
</svg>
