<?xml version="1.0" encoding="utf-8"?>
<!-- Generator: Adobe Illustrator 19.0.0, SVG Export Plug-In . SVG Version: 6.00 Build 0)  -->
<svg version="1.1" id="Laag_1" xmlns="http://www.w3.org/2000/svg" xmlns:xlink="http://www.w3.org/1999/xlink" x="0px" y="0px"
	 viewBox="0 0 42.5 42.5" style="enable-background:new 0 0 42.5 42.5;" xml:space="preserve">
<style type="text/css">
	.st0{fill:#FFFFFF;}
	.st1{fill:#FDDF6D;}
	.st2{fill:#FBC56C;}
	.st3{fill:#464756;}
	.st4{fill:#ADACB2;}
</style>
<rect id="XMLID_1_" x="0" class="st0" width="42.5" height="42.5"/>
<circle id="XMLID_346_" class="st1" cx="18" cy="21.5" r="17.8"/>
<path id="XMLID_345_" class="st2" d="M21.8,36.7C12,36.7,4,28.7,4,18.9c0-5.3,2.3-10,5.9-13.2c-5.8,2.9-9.7,8.9-9.7,15.9
	c0,9.8,8,17.8,17.8,17.8c4.6,0,8.8-1.7,11.9-4.6C27.5,36,24.7,36.7,21.8,36.7z"/>
<g id="XMLID_362_">
	<path id="XMLID_338_" class="st3" d="M15.5,23.7c-1.8,0-3.4-0.5-4.3-1.2c-0.3-0.3-0.3-0.7-0.1-1c0.3-0.3,0.7-0.3,1-0.1
		c0.6,0.5,1.9,0.9,3.3,0.9c1.4,0,2.7-0.3,3.4-0.9c0.3-0.2,0.8-0.2,1,0.1c0.2,0.3,0.2,0.8-0.1,1C18.8,23.3,17.2,23.7,15.5,23.7z"/>
	<path id="XMLID_337_" class="st3" d="M28,23.7c-1.8,0-3.4-0.5-4.3-1.2c-0.3-0.3-0.3-0.7-0.1-1c0.3-0.3,0.7-0.3,1-0.1
		c0.6,0.5,1.9,0.9,3.3,0.9c1.4,0,2.7-0.3,3.4-0.9c0.3-0.2,0.8-0.2,1,0.1c0.2,0.3,0.2,0.8-0.1,1C31.3,23.3,29.7,23.7,28,23.7z"/>
	<circle id="XMLID_336_" class="st3" cx="21.6" cy="31.8" r="3"/>
</g>
<g id="XMLID_349_">
	<path id="XMLID_331_" class="st4" d="M21.7,18.8c-0.2,0-0.3-0.1-0.5-0.2c-0.2-0.2-0.3-0.5-0.2-0.8l0.8-2.3l-1.5,0.8
		c-0.4,0.2-0.8,0.1-1-0.3c-0.2-0.4-0.1-0.8,0.3-1l3.2-1.7c0.3-0.1,0.6-0.1,0.8,0.1c0.2,0.2,0.3,0.5,0.2,0.8L23,16.7l1.3-0.6
		c0.4-0.2,0.8,0,1,0.3c0.2,0.4,0,0.8-0.3,1L22,18.8C21.9,18.8,21.8,18.8,21.7,18.8z"/>
	<path id="XMLID_330_" class="st4" d="M28.8,15.6c-0.2,0-0.3-0.1-0.5-0.2c-0.2-0.2-0.3-0.5-0.2-0.8l1.4-4l-2.9,1.5
		c-0.4,0.2-0.8,0.1-1-0.3c-0.2-0.4-0.1-0.8,0.3-1l4.5-2.4c0.3-0.1,0.6-0.1,0.8,0.1c0.2,0.2,0.3,0.5,0.2,0.8L30,13.4l3-1.5
		c0.4-0.2,0.8,0,1,0.3c0.2,0.4,0,0.8-0.3,1l-4.6,2.3C29,15.6,28.9,15.6,28.8,15.6z"/>
	<path id="XMLID_329_" class="st4" d="M36.5,11.9c-0.2,0-0.3-0.1-0.5-0.2c-0.2-0.2-0.3-0.5-0.2-0.8l1.9-5.5l-4,2.1
		c-0.4,0.2-0.8,0.1-1-0.3c-0.2-0.4-0.1-0.8,0.3-1l5.7-3c0.3-0.1,0.6-0.1,0.8,0.1c0.2,0.2,0.3,0.5,0.2,0.8l-2,5.6l3.5-1.7
		c0.4-0.2,0.8,0,1,0.3c0.2,0.4,0,0.8-0.3,1l-5.1,2.4C36.7,11.9,36.6,11.9,36.5,11.9z"/>
</g>
</svg>
