<?xml version="1.0" encoding="utf-8"?>
<!-- Generator: Adobe Illustrator 19.0.0, SVG Export Plug-In . SVG Version: 6.00 Build 0)  -->
<svg version="1.1" id="Laag_1" xmlns="http://www.w3.org/2000/svg" xmlns:xlink="http://www.w3.org/1999/xlink" x="0px" y="0px"
	 viewBox="0 0 42.5 42.5" style="enable-background:new 0 0 42.5 42.5;" xml:space="preserve">
<style type="text/css">
	.st0{fill:#FFFFFF;}
	.st1{fill:#602E20;}
	.st2{fill:#DFBF7D;}
	.st3{fill:#E83B48;}
	.st4{fill:#7D473A;}
	.st5{fill:#E85260;}
</style>
<rect id="XMLID_1_" x="0" class="st0" width="42.5" height="42.5"/>
<g id="XMLID_422_">
	<g id="XMLID_427_">
		<rect id="XMLID_268_" x="2" y="0.4" class="st0" width="37.8" height="34.9"/>
	</g>
	<g id="XMLID_423_">
		<path id="XMLID_424_" class="st1" d="M40.2,35.8H1.5V0h38.7V35.8z M2.4,34.9h37V0.9h-37V34.9z"/>
	</g>
</g>
<g id="XMLID_417_">
	<g id="XMLID_418_">
		<path id="XMLID_419_" class="st1" d="M40.2,35.8H1.5V0h38.7V35.8z M2.4,34.9h37V0.9h-37V34.9z"/>
	</g>
</g>
<g id="XMLID_395_">
	<g id="XMLID_409_">
		<g id="XMLID_410_">
			<rect id="XMLID_261_" x="4.7" y="13.7" class="st2" width="3" height="19.9"/>
		</g>
	</g>
	<g id="XMLID_401_">
		<g id="XMLID_402_">
			<path id="XMLID_258_" class="st3" d="M8.8,11.5c0,1.4-1.2,3.7-2.6,3.7S3.6,13,3.6,11.5s1.2-2.6,2.6-2.6S8.8,10.1,8.8,11.5z"/>
		</g>
	</g>
</g>
<g id="XMLID_378_">
	<g id="XMLID_392_">
		<g id="XMLID_393_">
			<rect id="XMLID_255_" x="10.5" y="13.7" class="st2" width="3" height="19.9"/>
		</g>
	</g>
	<g id="XMLID_384_">
		<g id="XMLID_385_">
			<path id="XMLID_252_" class="st3" d="M14.6,11.5c0,1.4-1.2,3.7-2.6,3.7S9.4,13,9.4,11.5s1.2-2.6,2.6-2.6S14.6,10.1,14.6,11.5z"/>
		</g>
	</g>
</g>
<g id="XMLID_361_">
	<g id="XMLID_375_">
		<g id="XMLID_376_">
			<rect id="XMLID_249_" x="16.4" y="13.7" class="st2" width="3" height="19.9"/>
		</g>
	</g>
	<g id="XMLID_367_">
		<g id="XMLID_368_">
			<path id="XMLID_246_" class="st3" d="M20.5,11.5c0,1.4-1.2,3.7-2.6,3.7c-1.4,0-2.6-2.3-2.6-3.7s1.2-2.6,2.6-2.6
				C19.3,8.9,20.5,10.1,20.5,11.5z"/>
		</g>
	</g>
</g>
<g id="XMLID_344_">
	<g id="XMLID_358_">
		<g id="XMLID_359_">
			<rect id="XMLID_243_" x="22.2" y="13.7" class="st2" width="3" height="19.9"/>
		</g>
	</g>
	<g id="XMLID_350_">
		<g id="XMLID_351_">
			<path id="XMLID_239_" class="st3" d="M26.3,11.5c0,1.4-1.2,3.7-2.6,3.7c-1.4,0-2.6-2.3-2.6-3.7s1.2-2.6,2.6-2.6
				C25.2,8.9,26.3,10.1,26.3,11.5z"/>
		</g>
	</g>
</g>
<g id="XMLID_341_">
	<g id="XMLID_342_">
		<rect id="XMLID_236_" x="28.1" y="13.7" class="st2" width="3" height="19.9"/>
	</g>
</g>
<g id="XMLID_333_">
	<g id="XMLID_334_">
		<path id="XMLID_233_" class="st3" d="M32.2,11.5c0,1.4-1.2,3.7-2.6,3.7c-1.4,0-2.6-2.3-2.6-3.7s1.2-2.6,2.6-2.6
			C31,8.9,32.2,10.1,32.2,11.5z"/>
	</g>
</g>
<g id="XMLID_324_">
	<g id="XMLID_325_">
		<rect id="XMLID_228_" x="33.9" y="8.6" class="st2" width="3" height="19.9"/>
	</g>
</g>
<g id="XMLID_316_">
	<g id="XMLID_317_">
		<path id="XMLID_211_" class="st3" d="M38,6.4c0,1.4-1.2,3.7-2.6,3.7c-1.4,0-2.6-2.3-2.6-3.7c0-1.4,1.2-2.6,2.6-2.6
			C36.9,3.8,38,5,38,6.4z"/>
	</g>
</g>
<g id="XMLID_290_">
	<g id="XMLID_307_">
		<g id="XMLID_308_">
			<rect id="XMLID_208_" x="1.5" y="33.2" class="st4" width="38.7" height="9.2"/>
		</g>
	</g>
	<g id="XMLID_299_">
	</g>
	<g id="XMLID_291_">
		<g id="XMLID_292_">
			<path id="XMLID_293_" class="st1" d="M40.2,40.6H1.7v-5.4h38.5V40.6z M2.6,39.7h36.8V36H2.6V39.7z"/>
		</g>
	</g>
</g>
<g id="XMLID_287_">
	<g id="XMLID_288_">
		<ellipse id="XMLID_201_" class="st5" cx="6.1" cy="10.7" rx="1.2" ry="0.7"/>
	</g>
</g>
<g id="XMLID_284_">
	<g id="XMLID_285_">
		<ellipse id="XMLID_200_" class="st5" cx="12" cy="10.7" rx="1.2" ry="0.7"/>
	</g>
</g>
<g id="XMLID_281_">
	<g id="XMLID_282_">
		<ellipse id="XMLID_199_" class="st5" cx="17.9" cy="10.7" rx="1.2" ry="0.7"/>
	</g>
</g>
<g id="XMLID_278_">
	<g id="XMLID_279_">
		<ellipse id="XMLID_198_" class="st5" cx="23.8" cy="10.7" rx="1.2" ry="0.7"/>
	</g>
</g>
<g id="XMLID_275_">
	<g id="XMLID_276_">
		<ellipse id="XMLID_196_" class="st5" cx="29.7" cy="10.7" rx="1.2" ry="0.7"/>
	</g>
</g>
<g id="XMLID_272_">
	<g id="XMLID_273_">
		<ellipse id="XMLID_194_" class="st5" cx="35.4" cy="5.5" rx="1.2" ry="0.7"/>
	</g>
</g>
<rect id="XMLID_204_" x="1.5" y="35.4" class="st1" width="38.6" height="5.2"/>
</svg>
