<?xml version="1.0" encoding="utf-8"?>
<!-- Generator: Adobe Illustrator 19.0.0, SVG Export Plug-In . SVG Version: 6.00 Build 0)  -->
<svg version="1.1" id="Laag_1" xmlns="http://www.w3.org/2000/svg" xmlns:xlink="http://www.w3.org/1999/xlink" x="0px" y="0px"
	 viewBox="0 0 42.5 42.5" style="enable-background:new 0 0 42.5 42.5;" xml:space="preserve">
<style type="text/css">
	.st0{fill:#FFFFFF;}
	.st1{fill:#5B5B5E;}
	.st2{fill:#94BFCE;}
	.st3{fill:#CECDCD;}
	.st4{fill:#F18640;}
	.st5{fill:#C4E5F4;}
	.st6{fill:#F1863F;}
	.st7{fill:#EF7A2C;}
	.st8{fill:#FDCA58;}
	.st9{fill:#FCC34F;}
</style>
<rect id="XMLID_1_" x="0" class="st0" width="42.5" height="42.5"/>
<g id="XMLID_210_">
	<g id="XMLID_323_">
		<g id="XMLID_428_">
			<g id="XMLID_435_">
				<circle id="XMLID_318_" class="st1" cx="22.7" cy="13.1" r="2.5"/>
			</g>
			<g id="XMLID_431_">
				<path id="XMLID_432_" class="st1" d="M22.7,16c-1.6,0-2.9-1.3-2.9-2.9s1.3-2.9,2.9-2.9c1.6,0,2.9,1.3,2.9,2.9S24.3,16,22.7,16z
					 M22.7,11c-1.1,0-2.1,0.9-2.1,2.1s0.9,2.1,2.1,2.1c1.1,0,2.1-0.9,2.1-2.1S23.8,11,22.7,11z"/>
			</g>
		</g>
		<g id="XMLID_408_">
			<g id="XMLID_411_">
				<g id="XMLID_425_">
					<polygon id="XMLID_309_" class="st1" points="29.6,16 29.6,14.5 23.8,14.5 23.8,18.2 27.4,18.2 27.4,16 					"/>
				</g>
				<g id="XMLID_415_">
					<path id="XMLID_416_" class="st1" d="M27.4,18.6h-3.7c-0.2,0-0.4-0.2-0.4-0.4v-3.7c0-0.2,0.2-0.4,0.4-0.4h5.8
						c0.2,0,0.4,0.2,0.4,0.4V16c0,0.2-0.2,0.4-0.4,0.4h-1.7v1.7C27.8,18.4,27.7,18.6,27.4,18.6z M24.2,17.8H27V16
						c0-0.2,0.2-0.4,0.4-0.4h1.7v-0.8h-5V17.8z"/>
				</g>
			</g>
		</g>
		<g id="XMLID_386_">
			<g id="XMLID_390_">
				<g id="XMLID_403_">
					<path id="XMLID_301_" class="st2" d="M16.5,18.1C16.5,18.1,16.5,18.2,16.5,18.1l0,22.3c0,1.2,0.9,2.1,2.1,2.1h7.2
						c1.2,0,2.1-0.9,2.1-2.1V18.2c0,0,0,0,0,0H16.5z"/>
				</g>
			</g>
		</g>
		<g id="XMLID_377_">
			<g id="XMLID_382_">
				<polygon id="XMLID_294_" class="st3" points="24.4,18.3 16.6,18.3 16.6,13.1 22.6,13.1 				"/>
			</g>
		</g>
		<g id="XMLID_369_">
			<g id="XMLID_373_">
				<rect id="XMLID_289_" x="18" y="13.1" class="st0" width="2.1" height="5"/>
			</g>
		</g>
		<g id="XMLID_326_">
			<g id="XMLID_340_">
				<path id="XMLID_277_" class="st4" d="M20.8,8.2c0,1.2-1,2.2-2.2,2.2c-1.2,0-2.2-1-2.2-2.2c0-1.2,2.2-5.7,2.2-5.7
					S20.8,6.9,20.8,8.2z"/>
			</g>
		</g>
		<g id="XMLID_360_">
			<g id="XMLID_365_">
				<path id="XMLID_286_" class="st5" d="M19.2,40.9L19.2,40.9c-0.7,0-1.4-0.6-1.4-1.4V20.7c0-0.7,0.6-1.4,1.4-1.4l0,0
					c0.7,0,1.4,0.6,1.4,1.4v18.8C20.6,40.3,20,40.9,19.2,40.9z"/>
			</g>
		</g>
	</g>
	<path id="XMLID_209_" class="st6" d="M20.5,10c-3.2,2.2-7.1-1.8-4.9-5l3-4.4l3,4.4C22.6,6.5,22.5,8.7,20.5,10z"/>
	<path id="XMLID_207_" class="st7" d="M18.6,10.6V0.6l-3,4.4C13.8,7.6,16.1,10.6,18.6,10.6z"/>
	<path id="XMLID_206_" class="st8" d="M19.6,10.3C18,11.4,16,9.4,17.1,7.8l1.5-2.2l1.5,2.2C20.6,8.6,20.5,9.7,19.6,10.3z"/>
	<path id="XMLID_205_" class="st9" d="M18.6,10.6v-5l-1.5,2.2C16.2,9.1,17.4,10.6,18.6,10.6z"/>
</g>
</svg>
