<?xml version="1.0" encoding="utf-8"?>
<!-- Generator: Adobe Illustrator 19.0.0, SVG Export Plug-In . SVG Version: 6.00 Build 0)  -->
<svg version="1.1" id="Laag_1" xmlns="http://www.w3.org/2000/svg" xmlns:xlink="http://www.w3.org/1999/xlink" x="0px" y="0px"
	 viewBox="0 0 42.5 42.5" style="enable-background:new 0 0 42.5 42.5;" xml:space="preserve">
<style type="text/css">
	.st0{fill:#FFFFFF;}
	.st1{fill:#5D5D60;}
	.st2{fill:#CFCDCD;}
	.st3{fill:#F18640;}
	.st4{fill:#ADACB2;}
	.st5{fill:#602E20;}
	.st6{fill:#7E473A;}
	.st7{fill:#FDCA57;}
</style>
<rect id="XMLID_1_" x="0" class="st0" width="42.5" height="42.5"/>
<g id="XMLID_229_">
	<rect id="XMLID_466_" x="4.6" y="15.8" class="st1" width="34.1" height="20.3"/>
	<polygon id="XMLID_465_" class="st2" points="1.7,10.7 1.7,36.1 6.8,36.1 6.8,20.2 8.9,18.7 8.9,16.5 33.6,16.5 33.6,18.7 
		35.8,20.2 35.8,36.1 40.8,36.1 40.8,10.7 	"/>
	<path id="XMLID_464_" class="st3" d="M25,23.1l-1.3-1.5c-0.2,1.6-0.6,2.8-0.6,2.8c0-2.1-0.7-4-1.7-5.5l-0.2-0.2l-1.2,1.4
		c-1.6,1.8-2.2,4.3-1.7,6.7c0,0,0,0,0,0.1c0,0-0.9-1.4-1.4-3.1c-1.2,1.9-1,4.4,0.5,6.2c2,2.3,5.6,2.4,7.6,0.1
		C26.8,28.1,26.7,25,25,23.1z"/>
	<rect id="XMLID_463_" x="0.2" y="8.6" class="st4" width="42" height="3.6"/>
	<rect id="XMLID_462_" x="14.7" y="33.2" class="st5" width="13" height="2.9"/>
	<path id="XMLID_438_" class="st6" d="M24.8,30.3c-2,1.9-5.1,1.9-7,0h-1.6v2.9h10.1v-2.9H24.8z"/>
	<path id="XMLID_434_" class="st7" d="M24,26.2l-0.8-0.9c-0.1,1-0.4,1.8-0.4,1.8c0-1.4-0.5-2.6-1.1-3.6l-0.1-0.1l-0.8,0.9
		c-1,1.2-1.5,2.8-1.1,4.3c0,0,0,0,0,0c0,0-0.6-0.9-0.9-2c-0.8,1.2-0.7,2.8,0.3,4c1.3,1.5,3.6,1.5,5,0C25.2,29.4,25.1,27.5,24,26.2z"
		/>
</g>
</svg>
