<?xml version="1.0" encoding="utf-8"?>
<!-- Generator: Adobe Illustrator 19.0.0, SVG Export Plug-In . SVG Version: 6.00 Build 0)  -->
<svg version="1.1" id="Laag_1" xmlns="http://www.w3.org/2000/svg" xmlns:xlink="http://www.w3.org/1999/xlink" x="0px" y="0px"
	 viewBox="0 0 42.5 42.5" style="enable-background:new 0 0 42.5 42.5;" xml:space="preserve">
<style type="text/css">
	.st0{fill:#FFFFFF;}
	.st1{fill:#CFCDCD;}
	.st2{fill:#ADACB2;}
	.st3{fill:#5C5C5F;}
	.st4{fill:#EBB670;}
	.st5{fill:#EACCA7;}
</style>
<rect id="XMLID_1_" x="0" class="st0" width="42.5" height="42.5"/>
<g id="XMLID_213_">
	<path id="XMLID_475_" class="st1" d="M40.9,39.2H1.6c-0.8,0-1.5-0.7-1.5-1.5v-32c0-0.8,0.7-1.5,1.5-1.5h39.3c0.8,0,1.5,0.7,1.5,1.5
		v32C42.4,38.5,41.7,39.2,40.9,39.2z"/>
	<rect id="XMLID_474_" x="7.4" y="4.3" class="st2" width="27.7" height="7.3"/>
	<g id="XMLID_488_">
		<path id="XMLID_473_" class="st3" d="M39.5,36.3H3.1c-0.8,0-1.5-0.7-1.5-1.5V13c0-0.8,0.7-1.5,1.5-1.5h36.4c0.8,0,1.5,0.7,1.5,1.5
			v21.8C40.9,35.6,40.3,36.3,39.5,36.3z"/>
		<circle id="XMLID_472_" class="st3" cx="12.5" cy="7.9" r="2.2"/>
	</g>
	<path id="XMLID_471_" class="st4" d="M37.3,33.4h-32c-0.4,0-0.7-0.3-0.7-0.7V18.1c0-0.4,0.3-0.7,0.7-0.7h32c0.4,0,0.7,0.3,0.7,0.7
		v14.6C38,33.1,37.7,33.4,37.3,33.4z"/>
	<path id="XMLID_470_" class="st0" d="M37.3,15.9h-32c-0.4,0-0.7-0.3-0.7-0.7c0-0.4,0.3-0.7,0.7-0.7h32c0.4,0,0.7,0.3,0.7,0.7
		C38,15.6,37.7,15.9,37.3,15.9z"/>
	<path id="XMLID_469_" class="st4" d="M25.6,9.3h-8.7c-0.4,0-0.7-0.3-0.7-0.7V7.2c0-0.4,0.3-0.7,0.7-0.7h8.7c0.4,0,0.7,0.3,0.7,0.7
		v1.5C26.4,9,26,9.3,25.6,9.3z"/>
	<g id="XMLID_482_">
		<path id="XMLID_468_" class="st5" d="M20.4,28.4c-0.2,0-0.4-0.1-0.5-0.2L12.8,21c-0.3-0.3-0.3-0.7,0-1c0.3-0.3,0.7-0.3,1,0
			l7.2,7.2c0.3,0.3,0.3,0.7,0,1C20.8,28.3,20.6,28.4,20.4,28.4z"/>
		<path id="XMLID_467_" class="st5" d="M28.5,32.3c-0.2,0-0.4-0.1-0.5-0.2l-4-4c-0.3-0.3-0.3-0.7,0-1c0.3-0.3,0.7-0.3,1,0l4,4
			c0.3,0.3,0.3,0.7,0,1C28.9,32.2,28.7,32.3,28.5,32.3z"/>
	</g>
	<path id="XMLID_461_" class="st5" d="M22.4,26.1c-0.2,0-0.4-0.1-0.5-0.2l-1.6-1.6c-0.3-0.3-0.3-0.7,0-1c0.3-0.3,0.7-0.3,1,0
		l1.6,1.6c0.3,0.3,0.3,0.7,0,1C22.7,26,22.5,26.1,22.4,26.1z"/>
	<path id="XMLID_459_" class="st0" d="M14,10.1c-0.2,0-0.4-0.1-0.5-0.2l-2.9-2.9c-0.3-0.3-0.3-0.7,0-1c0.3-0.3,0.7-0.3,1,0l2.9,2.9
		c0.3,0.3,0.3,0.7,0,1C14.4,10,14.2,10.1,14,10.1z"/>
	<circle id="XMLID_458_" class="st3" cx="30" cy="7.9" r="2.2"/>
	<path id="XMLID_433_" class="st0" d="M31.5,10.1c-0.2,0-0.4-0.1-0.5-0.2L28,6.9c-0.3-0.3-0.3-0.7,0-1c0.3-0.3,0.7-0.3,1,0L32,8.8
		c0.3,0.3,0.3,0.7,0,1C31.8,10,31.6,10.1,31.5,10.1z"/>
</g>
</svg>
