<?xml version="1.0" encoding="utf-8"?>
<!-- Generator: Adobe Illustrator 19.0.0, SVG Export Plug-In . SVG Version: 6.00 Build 0)  -->
<svg version="1.1" id="Laag_1" xmlns="http://www.w3.org/2000/svg" xmlns:xlink="http://www.w3.org/1999/xlink" x="0px" y="0px"
	 viewBox="0 0 42.5 42.5" style="enable-background:new 0 0 42.5 42.5;" xml:space="preserve">
<style type="text/css">
	.st0{fill:#FFFFFF;}
	.st1{fill:#E83B47;}
	.st2{fill:#EBB670;}
</style>
<rect id="XMLID_1_" x="0" class="st0" width="42.5" height="42.5"/>
<g id="XMLID_441_">
	<path id="XMLID_426_" class="st1" d="M26.4,13.3l-5.2,8L12.7,27c-0.2-0.6-0.3-1.3-0.4-2.1C12.1,17.5,20,19.4,20,8.3
		C20,8.3,23.4,10.1,26.4,13.3z"/>
	<path id="XMLID_421_" class="st1" d="M18.6,30.2c0.4,0.8-0.3,1.7-1.2,1.4c-0.9-0.3-1.7-0.7-2.4-1.3l0.3-3l2.5,0.2
		C17.9,28.5,18.3,29.4,18.6,30.2z"/>
	<path id="XMLID_383_" class="st1" d="M28.9,16.4c1.5,2.4,2.5,5.2,2.1,8.4c-0.4,3.1-2.2,5.1-4.6,6.3c-0.7,0.3-1.5-0.2-1.4-1
		c0-0.3,0.1-0.7,0.1-1c0-2.4-2.1-3.3-3.2-5.6l1.7-5.1L28.9,16.4z"/>
</g>
<path id="XMLID_436_" class="st2" d="M21.3,0.4c11.5,0,20.8,9.3,20.8,20.8s-9.3,20.8-20.8,20.8c-11.5,0-20.8-9.3-20.8-20.8
	S9.8,0.4,21.3,0.4z M38.1,21.3c0-3.9-1.3-7.5-3.6-10.4l-5.6,5.6l-7,7l-4.1,4.1l-2.7,2.7l-4.2,4.2c2.9,2.3,6.5,3.6,10.4,3.6
	C30.5,38.1,38.1,30.5,38.1,21.3z M26.4,13.3l5.2-5.2c-2.9-2.3-6.5-3.6-10.4-3.6C12,4.5,4.5,12,4.5,21.3c0,3.9,1.3,7.5,3.6,10.4
	l4.6-4.6L26.4,13.3z"/>
</svg>
