<?xml version="1.0" encoding="utf-8"?>
<!-- Generator: Adobe Illustrator 19.0.0, SVG Export Plug-In . SVG Version: 6.00 Build 0)  -->
<svg version="1.1" id="Laag_1" xmlns="http://www.w3.org/2000/svg" xmlns:xlink="http://www.w3.org/1999/xlink" x="0px" y="0px"
	 viewBox="0 0 42.5 42.5" style="enable-background:new 0 0 42.5 42.5;" xml:space="preserve">
<style type="text/css">
	.st0{fill:#FFFFFF;}
	.st1{fill:#6A5B6A;}
	.st2{fill:#F0CE47;}
	.st3{fill:#C0525B;}
	.st4{fill:#A7DAE6;}
	.st5{fill:#A8DAE5;}
	.st6{fill:#5B5B5E;}
	.st7{fill:#C1525B;}
</style>
<rect id="XMLID_1_" x="0" class="st0" width="42.5" height="42.5"/>
<g id="XMLID_500_">
	<rect id="XMLID_498_" x="29.1" y="3.2" class="st1" width="3.4" height="3.4"/>
	<path id="XMLID_522_" class="st2" d="M1.1,18.9v19.3h15.7V23.7h9v14.5h15.7V18.9H21.3H1.1z M13.4,23.7v2.4v1.2v4.8v1.2h-1.1H6.7
		H5.6v-1.2v-4.8v-1.2v-2.4v-1.2h1.1h5.6h1.1L13.4,23.7L13.4,23.7z M29.1,32.2v-4.8v-1.2v-2.4v-1.2h1.1h5.6H37v1.2v2.4v1.2v4.8v1.2
		h-1.1h-5.6h-1.1V32.2z"/>
	<polygon id="XMLID_494_" class="st3" points="37,6.5 32.5,6.5 29.1,6.5 21.3,6.5 5.6,6.5 0,18.9 1.1,18.9 21.3,18.9 41.4,18.9 
		42.6,18.9 	"/>
	<polygon id="XMLID_493_" class="st4" points="6.7,32.1 11.2,32.1 6.7,27.2 	"/>
	<polygon id="XMLID_492_" class="st5" points="11.2,32.1 12.3,32.1 12.3,27.2 6.7,27.2 	"/>
	<rect id="XMLID_491_" x="6.7" y="23.5" class="st5" width="5.6" height="2.5"/>
	<path id="XMLID_514_" class="st6" d="M6.7,22.2H5.6v1.2V26v1.2v4.9v1.2h1.1h5.6h1.1v-1.2v-4.9V26v-2.5v-1.2h-1.1H6.7z M12.3,32.1
		h-1.1H6.7v-4.9h5.6V32.1z M12.3,26H6.7v-2.5h5.6V26z"/>
	<polygon id="XMLID_486_" class="st4" points="30.2,27.2 30.2,32.1 34.7,32.1 	"/>
	<polygon id="XMLID_485_" class="st5" points="35.8,32.1 35.8,27.2 30.2,27.2 34.7,32.1 	"/>
	<rect id="XMLID_484_" x="30.2" y="23.5" class="st5" width="5.6" height="2.5"/>
	<path id="XMLID_505_" class="st6" d="M35.8,33.4H37v-1.2v-4.9V26v-2.5v-1.2h-1.1h-5.6h-1.1v1.2V26v1.2v4.9v1.2h1.1L35.8,33.4
		L35.8,33.4z M30.2,23.5h5.6V26h-5.6V23.5z M30.2,27.2h5.6v4.9h-1.1h-4.5V27.2z"/>
	<polygon id="XMLID_478_" class="st7" points="25.7,23.4 16.8,23.4 16.8,34.5 16.8,38.2 25.7,38.2 25.7,34.5 	"/>
</g>
</svg>
