<?xml version="1.0" encoding="utf-8"?>
<!-- Generator: Adobe Illustrator 19.0.0, SVG Export Plug-In . SVG Version: 6.00 Build 0)  -->
<svg version="1.1" id="Laag_1" xmlns="http://www.w3.org/2000/svg" xmlns:xlink="http://www.w3.org/1999/xlink" x="0px" y="0px"
	 viewBox="0 0 42.5 42.5" style="enable-background:new 0 0 42.5 42.5;" xml:space="preserve">
<style type="text/css">
	.st0{fill:#FFFFFF;}
	.st1{fill:#E6E7E9;}
	.st2{fill:#D7DBDC;}
	.st3{fill:#ADACB2;}
	.st4{fill:#EFEEE4;}
	.st5{fill:#F0CE47;}
	.st6{fill:#EED58E;}
	.st7{fill:#E9CB6F;}
	.st8{fill:#A0A09F;}
	.st9{fill:#888988;}
</style>
<rect id="XMLID_1_" x="0" class="st0" width="42.5" height="42.5"/>
<g id="XMLID_510_">
	<path id="XMLID_387_" class="st1" d="M21.3,20.6c-11.3,0-20.5,3.9-20.5,8.6c0,4.8,9.2,8.6,20.5,8.6c11.3,0,20.5-3.9,20.5-8.6
		C41.8,24.4,32.6,20.6,21.3,20.6z"/>
	<path id="XMLID_381_" class="st1" d="M25.4,14c0,0,0,0.1,0,0.1c0,1.7-1.8,3-4,3c-2.2,0-4-1.3-4-3c0,0,0-0.1,0-0.1
		c-9.4,0.8-16.4,4.3-16.4,8.4c0,4.8,9.2,8.6,20.5,8.6c11.3,0,20.5-3.9,20.5-8.6C41.8,18.3,34.7,14.8,25.4,14z"/>
	<rect id="XMLID_380_" x="0.9" y="22" class="st1" width="40.9" height="7"/>
</g>
<path id="XMLID_379_" class="st2" d="M25.1,15.1c-0.6,1.2-2.1,2-3.8,2c-1.8,0-3.3-0.8-3.8-2c-8,0.7-14,3.7-14,7.3
	c0,4.1,8,7.5,17.8,7.5c9.9,0,17.8-3.4,17.8-7.5C39.2,18.9,33.2,15.9,25.1,15.1z"/>
<g id="XMLID_506_">
	<ellipse id="XMLID_372_" class="st3" cx="21.3" cy="29.9" rx="4" ry="3"/>
	<path id="XMLID_371_" class="st3" d="M21.3,19.5c-8,0-14.7,2.3-16.9,5.4c2.4,3,9.1,5.1,16.9,5.1c7.8,0,14.5-2.1,16.9-5
		C36.1,21.8,29.3,19.5,21.3,19.5z"/>
</g>
<path id="XMLID_370_" class="st4" d="M23.7,18.2l-1.1-2.8c-0.6-0.1-3.3-0.1-3.9,0l0.7,3l1.5,2.9l-1.5,2.9l3.6,0l2.1-4.5L23.7,18.2z"
	/>
<rect id="XMLID_355_" x="18.7" y="4.7" class="st5" width="3.9" height="10.8"/>
<path id="XMLID_234_" class="st6" d="M22.6,4.7"/>
<path id="XMLID_34_" class="st6" d="M18.7,4.7"/>
<path id="XMLID_232_" class="st7" d="M19.4,4.7"/>
<polygon id="XMLID_262_" class="st8" points="19.3,24.2 19.3,24.8 19.6,25.2 20,25.1 20.4,25.4 21.3,25.1 21.7,24.7 22.5,25.3 
	22.9,25.4 22.9,24.2 "/>
<polygon id="XMLID_260_" class="st9" points="21.3,24.2 20.7,24.2 19.5,24.8 19.7,25.2 21.1,24.8 21.3,25.1 21.7,24.7 22.5,25.2 
	22.9,25.3 "/>
<polygon id="XMLID_259_" class="st8" points="24.3,26.2 23.7,25.9 23.4,26.1 23.5,27.4 24.1,27.5 24.7,26.9 "/>
<polygon id="XMLID_257_" class="st9" points="24.2,26.2 23.4,26.1 23,27 23.5,27.4 24.3,27.2 24.7,26.9 "/>
<polygon id="XMLID_256_" class="st8" points="17.5,26.7 17.1,26.6 16.9,26.7 17,27.5 17.3,27.5 17.7,27.2 "/>
<polygon id="XMLID_254_" class="st9" points="17.4,26.8 16.9,26.7 16.7,27.2 17,27.5 17.4,27.3 17.7,27.2 "/>
<polygon id="XMLID_253_" class="st8" points="18.9,26.9 18.4,26.7 18.1,26.8 18.2,28 18.7,28.1 19.2,27.6 "/>
<polygon id="XMLID_250_" class="st9" points="18.8,26.9 18.1,26.8 17.8,27.6 18.2,28 18.9,27.8 19.2,27.6 "/>
<polygon id="XMLID_248_" class="st8" points="20,26.4 19.6,26.3 19.4,26.4 19.5,27.2 19.9,27.2 20.2,26.9 "/>
<polygon id="XMLID_247_" class="st9" points="19.9,26.4 19.4,26.4 19.2,26.9 19.5,27.2 20,27 20.2,26.9 "/>
<polygon id="XMLID_244_" class="st8" points="20.8,27.4 20.2,27.2 19.9,27.4 20,28.5 20.6,28.6 21.1,28.1 "/>
<polygon id="XMLID_242_" class="st9" points="20.7,27.5 19.9,27.4 19.6,28.2 20,28.5 20.7,28.3 21.1,28.1 "/>
<polygon id="XMLID_48_" class="st8" points="21.8,26.7 21.4,26.5 21.2,26.6 21.3,27.4 21.7,27.5 22,27.1 "/>
<polygon id="XMLID_47_" class="st9" points="21.8,26.7 21.2,26.6 21,27.2 21.3,27.4 21.8,27.3 22,27.1 "/>
<polygon id="XMLID_45_" class="st8" points="23,27.5 22.6,27.3 22.4,27.4 22.4,28.2 22.8,28.3 23.2,27.9 "/>
<polygon id="XMLID_35_" class="st9" points="22.9,27.5 22.4,27.4 22.1,28 22.4,28.2 22.9,28.1 23.2,27.9 "/>
</svg>
