<?xml version="1.0" encoding="utf-8"?>
<!-- Generator: Adobe Illustrator 19.0.0, SVG Export Plug-In . SVG Version: 6.00 Build 0)  -->
<svg version="1.1" id="Laag_1" xmlns="http://www.w3.org/2000/svg" xmlns:xlink="http://www.w3.org/1999/xlink" x="0px" y="0px"
	 viewBox="0 0 42.5 42.5" style="enable-background:new 0 0 42.5 42.5;" xml:space="preserve">
<style type="text/css">
	.st0{fill:#FFFFFF;}
	.st1{fill:#9B5658;}
	.st2{opacity:0.17;}
	.st3{fill:#010202;}
	.st4{fill:#C8C7C7;}
	.st5{fill:#484243;}
</style>
<rect id="XMLID_1_" x="0" class="st0" width="42.5" height="42.5"/>
<g id="XMLID_456_">
	<g id="XMLID_457_">
		<path id="XMLID_388_" class="st1" d="M8.7,39.1c10,0,10.1-24.1,15.7-29.7c5.6-5.6,17.1-0.8,17.1-0.8l0.7-1.4c0,0-8.5-3.2-13.7-2.3
			C23.1,5.9,22,7,18.2,16.3c-3.9,9.2-3.5,13.4-5.5,13.3c-2-0.1-1.7-3.2-1.7-3.2H0.8C0.8,26.4-1.4,39.1,8.7,39.1z"/>
	</g>
</g>
<g id="XMLID_452_" class="st2">
	<g id="XMLID_453_">
		<g id="XMLID_454_">
			<path id="XMLID_245_" class="st3" d="M4.2,26.3H0.8c0,0-1.6,11.9,6.9,12.8c0.2,0,0.6,0,0.6,0s-2.2-0.8-3.2-3.8
				C4.2,32.6,4.2,26.3,4.2,26.3z"/>
		</g>
	</g>
</g>
<g id="XMLID_445_">
	<g id="XMLID_449_">
		<g id="XMLID_450_">
			<path id="XMLID_240_" class="st4" d="M17.1,30.2c0,0,0.7-2.5,1-3.8l-2.9-1.9c-0.4,1.4-1,3.7-1,3.7L17.1,30.2z"/>
		</g>
	</g>
	<g id="XMLID_446_">
		<g id="XMLID_447_">
			<path id="XMLID_238_" class="st5" d="M28,4.9C22.6,6,21.5,7.3,17.6,17.4c-1.1,2.7-1.8,5.1-2.4,7l2.9,1.9
				c1.7-6.7,4.1-13.6,6.7-16.4c5.7-6.2,16.5-0.6,16.5-0.6l1-2.2C42.3,7.1,33.4,3.8,28,4.9z"/>
		</g>
	</g>
</g>
</svg>
