<?xml version="1.0" encoding="utf-8"?>
<!-- Generator: Adobe Illustrator 19.0.0, SVG Export Plug-In . SVG Version: 6.00 Build 0)  -->
<svg version="1.1" id="Laag_1" xmlns="http://www.w3.org/2000/svg" xmlns:xlink="http://www.w3.org/1999/xlink" x="0px" y="0px"
	 viewBox="0 0 42.5 42.5" style="enable-background:new 0 0 42.5 42.5;" xml:space="preserve">
<style type="text/css">
	.st0{fill:#FFFFFF;}
	.st1{fill:#ADACB2;}
	.st2{fill:#E6E7E9;}
	.st3{fill:#C1525B;}
	.st4{fill:#F0CE49;}
</style>
<rect id="XMLID_1_" x="0" class="st0" width="42.5" height="42.5"/>
<g id="XMLID_460_">
	<path id="XMLID_451_" class="st1" d="M36.5,14.7H5.2c-0.3,0-0.6-0.3-0.6-0.6V9.5c0-0.3,0.3-0.6,0.6-0.6h32.2c0.3,0,0.6,0.3,0.6,0.6
		v3.8C38,14.1,37.3,14.7,36.5,14.7"/>
	<path id="XMLID_448_" class="st2" d="M6.5,14.7L9.6,41c0.1,0.8,0.7,1.3,1.4,1.3h20.3c0.8,0,1.4-0.6,1.4-1.3L36,14.7H6.5z"/>
	<g id="XMLID_483_">
		<polygon id="XMLID_444_" class="st3" points="19.8,8.9 19,4.6 6.7,6.9 7.1,8.9 		"/>
		<polygon id="XMLID_443_" class="st3" points="34.4,8.9 35.1,5.5 25.6,4 24.7,8.9 		"/>
	</g>
	<polygon id="XMLID_429_" class="st4" points="28.5,0.2 14,1.4 14.4,5.5 19,4.6 19.8,8.9 24.7,8.9 25.6,4 29,4.5 	"/>
	<g id="XMLID_476_">
		<path id="XMLID_413_" class="st1" d="M21.3,32.9c-0.4,0-0.7-0.3-0.7-0.7V19.1c0-0.4,0.3-0.7,0.7-0.7c0.4,0,0.7,0.3,0.7,0.7v13.1
			C22,32.6,21.7,32.9,21.3,32.9"/>
		<path id="XMLID_412_" class="st1" d="M14.6,32.9c-0.4,0-0.7-0.3-0.7-0.7l-1.1-13c0-0.4,0.3-0.8,0.7-0.8c0.4,0,0.8,0.3,0.8,0.7
			l1.1,13C15.3,32.5,15,32.8,14.6,32.9C14.6,32.9,14.6,32.9,14.6,32.9"/>
		<path id="XMLID_397_" class="st1" d="M28,32.9C27.9,32.9,27.9,32.9,28,32.9c-0.5,0-0.8-0.4-0.7-0.8l1.1-13c0-0.4,0.4-0.7,0.8-0.7
			c0.4,0,0.7,0.4,0.7,0.8l-1.1,13C28.6,32.6,28.3,32.9,28,32.9"/>
	</g>
</g>
</svg>
