<?xml version="1.0" encoding="utf-8"?>
<!-- Generator: Adobe Illustrator 19.0.0, SVG Export Plug-In . SVG Version: 6.00 Build 0)  -->
<svg version="1.1" id="Laag_1" xmlns="http://www.w3.org/2000/svg" xmlns:xlink="http://www.w3.org/1999/xlink" x="0px" y="0px"
	 viewBox="0 0 42.5 42.5" style="enable-background:new 0 0 42.5 42.5;" xml:space="preserve">
<style type="text/css">
	.st0{fill:#FFFFFF;}
	.st1{fill:#5B5B5E;}
	.st2{fill:#F0CE47;}
</style>
<rect id="XMLID_1_" x="0" class="st0" width="42.5" height="42.5"/>
<g id="XMLID_23_">
	<g id="XMLID_251_">
		<rect id="XMLID_44_" x="4.7" y="6.9" class="st1" width="33.2" height="12.5"/>
		<path id="XMLID_43_" class="st1" d="M37.8,14c0-2.4,0-4.8,0-7.2c-11-1.2-22.2-1.2-33.2,0c0,2.4,0,4.8,0,7.2
			C15.7,14,26.8,14,37.8,14z"/>
	</g>
	<polygon id="XMLID_42_" class="st0" points="37.8,19.4 42.6,27 0,27 4.7,19.4 	"/>
	<g id="XMLID_49_">
		<rect id="XMLID_41_" x="0" y="23.8" class="st1" width="42.6" height="11.5"/>
		<path id="XMLID_40_" class="st1" d="M0,32.6c0-2.9,0-5.8,0-8.7c14.2-1.6,28.4-1.6,42.6,0c0,2.9,0,5.8,0,8.7
			C28.4,32.6,14.2,32.6,0,32.6z"/>
		<polygon id="XMLID_39_" class="st1" points="2.6,37.6 0,37.6 0,35.3 4.2,35.3 		"/>
		<polygon id="XMLID_38_" class="st1" points="39.9,37.6 42.6,37.6 42.6,35.3 38.3,35.3 		"/>
	</g>
	<g id="XMLID_46_">
		<path id="XMLID_37_" class="st2" d="M33.8,19.3h-9.6c-0.1,0-0.1-0.1-0.1-0.1v-3.7c0-0.1,0.1-0.1,0.1-0.1h9.6
			c0.1,0,0.1,0.1,0.1,0.1v3.7C33.9,19.3,33.9,19.3,33.8,19.3z"/>
		<path id="XMLID_36_" class="st2" d="M18.3,19.3H8.7c-0.1,0-0.1-0.1-0.1-0.1v-3.7c0-0.1,0.1-0.1,0.1-0.1h9.6c0.1,0,0.1,0.1,0.1,0.1
			v3.7C18.4,19.3,18.3,19.3,18.3,19.3z"/>
	</g>
</g>
</svg>
