<?xml version="1.0" encoding="utf-8"?>
<!-- Generator: Adobe Illustrator 19.0.0, SVG Export Plug-In . SVG Version: 6.00 Build 0)  -->
<svg version="1.1" id="Laag_1" xmlns="http://www.w3.org/2000/svg" xmlns:xlink="http://www.w3.org/1999/xlink" x="0px" y="0px"
	 viewBox="0 0 42.5 42.5" style="enable-background:new 0 0 42.5 42.5;" xml:space="preserve">
<style type="text/css">
	.st0{fill:#FFFFFF;}
	.st1{fill:#E6E9EF;}
	.st2{fill:#C1525B;}
	.st3{fill:#EB695C;}
	.st4{fill:#9B5658;}
	.st5{fill:#5B5B5E;}
	.st6{fill:#5C5C5F;}
	.st7{fill:#F0CE47;}
</style>
<rect id="XMLID_1_" x="0" class="st0" width="42.5" height="42.5"/>
<path id="XMLID_32_" class="st1" d="M28.7,41.5c0.8-0.4,1.3-1.1,1.3-2V32c0-0.7-0.3-1.2-0.8-1.7c-0.3-0.3-0.5-0.6-0.5-1
	c0-0.7,0.6-1.2,1.3-1.4v-0.5h1v0.5c0.8,0.2,1.3,0.7,1.3,1.4c0,0.4-0.2,0.7-0.5,1c-0.5,0.4-0.8,1-0.8,1.7v7.5c0,0.9,0.5,1.7,1.3,2
	l2.1,0.9H31h-1h-3.4L28.7,41.5z"/>
<path id="XMLID_31_" class="st0" d="M36.7,13.5c0.9,2.2,1.4,4.7,1.4,7.1c0,6.1-3.4,9.1-7.6,9.1s-7.6-3-7.6-9.1
	c0-2.4,0.5-4.9,1.4-7.1L36.7,13.5L36.7,13.5z"/>
<path id="XMLID_30_" class="st2" d="M37.4,18.6c0.1,0.7,0.2,1.5,0.2,2.2c0,5.3-2.7,8.5-7,8.5s-7-3.3-7-8.5c0-0.7,0.1-1.5,0.2-2.2
	L37.4,18.6L37.4,18.6z"/>
<path id="XMLID_29_" class="st3" d="M33.5,27.1l0.1-0.1c0.1-0.1,0.2-0.2,0.3-0.4c0.1-0.2,0.3-0.4,0.5-0.6c0.2-0.2,0.4-0.5,0.5-0.8
	c0.3-0.6,0.7-1.4,0.9-2.3c0.1-0.4,0.2-0.9,0.2-1.3c0.1-0.5,0.1-0.9,0.1-1.4c0-0.6,0-1.1-0.1-1.7h-0.7c0.1,0.5,0.2,1.1,0.2,1.7
	c0,0.4,0,0.9,0,1.3c0,0.4-0.1,0.9-0.1,1.3c-0.1,0.8-0.4,1.6-0.7,2.2c-0.2,0.3-0.3,0.6-0.5,0.9c-0.2,0.3-0.3,0.5-0.4,0.6
	c-0.1,0.2-0.2,0.3-0.3,0.4C33.5,27.1,33.5,27.1,33.5,27.1z"/>
<path id="XMLID_28_" class="st1" d="M34.8,13.5h-1.1c0.1,0.1,0.1,0.2,0.2,0.4c0.2,0.4,0.4,0.9,0.7,1.5c0.4,0.9,0.7,2,0.9,3.2h0.7
	c-0.1-1.3-0.4-2.5-0.7-3.4C35.2,14.5,34.9,13.9,34.8,13.5C34.8,13.5,34.8,13.5,34.8,13.5z"/>
<polygon id="XMLID_27_" class="st4" points="9.9,3.1 14.1,3.1 14.8,0.1 9.1,0.1 "/>
<path id="XMLID_26_" class="st5" d="M9.7,9V3.7h4.6V9c0,1.2,0.6,2.2,1.6,2.9c2.2,1.3,3.6,3.7,3.6,6.5v22.2c0,1-0.8,1.7-1.7,1.7H6.1
	c-1,0-1.7-0.8-1.7-1.7V18.3c0-2.7,1.5-5.1,3.6-6.5C9.1,11.3,9.7,10.2,9.7,9z"/>
<path id="XMLID_25_" class="st6" d="M9.2,4.1h5.6c0.1,0,0.1-0.1,0.1-0.1V2.8c0-0.1-0.1-0.1-0.1-0.1H9.2c-0.1,0-0.1,0.1-0.1,0.1V4
	C9.1,4.1,9.1,4.1,9.2,4.1z"/>
<rect id="XMLID_24_" x="4.4" y="20.8" class="st7" width="12.3" height="13.9"/>
</svg>
