<?xml version="1.0" encoding="utf-8"?>
<!-- Generator: Adobe Illustrator 19.0.0, SVG Export Plug-In . SVG Version: 6.00 Build 0)  -->
<svg version="1.1" id="Laag_1" xmlns="http://www.w3.org/2000/svg" xmlns:xlink="http://www.w3.org/1999/xlink" x="0px" y="0px"
	 viewBox="0 0 42.5 42.5" style="enable-background:new 0 0 42.5 42.5;" xml:space="preserve">
<style type="text/css">
	.st0{fill:#FFFFFF;}
	.st1{fill:#F2E9DC;}
	.st2{fill:#F0CE47;}
	.st3{fill:#5A5A5D;}
	.st4{opacity:0.2;}
	.st5{fill:#181E27;}
</style>
<rect id="XMLID_1_" x="0" class="st0" width="42.5" height="42.5"/>
<rect id="XMLID_396_" x="18.6" y="10.7" transform="matrix(0.3257 0.9455 -0.9455 0.3257 32.9993 -6.3585)" class="st1" width="4.8" height="18.5"/>
<rect id="XMLID_394_" x="31.3" y="9.8" transform="matrix(0.3257 0.9455 -0.9455 0.3257 37.4398 -21.3605)" class="st2" width="4.8" height="11.6"/>
<path id="XMLID_391_" class="st3" d="M24.2,19.3c0,1.6-1.3,2.9-2.9,2.9s-2.9-1.3-2.9-2.9H0v3.7c0,4.5,3.7,8.2,8.2,8.2h26.2
	c4.5,0,8.2-3.7,8.2-8.2v-3.7H24.2L24.2,19.3z"/>
<g id="XMLID_398_" class="st4">
	<path id="XMLID_389_" class="st5" d="M5.7,22.9v-3.7H0v3.7c0,4.5,3.7,8.2,8.2,8.2h5.7C9.3,31.1,5.7,27.4,5.7,22.9z"/>
</g>
</svg>
