<?xml version="1.0" encoding="utf-8"?>
<!-- Generator: Adobe Illustrator 19.0.0, SVG Export Plug-In . SVG Version: 6.00 Build 0)  -->
<svg version="1.1" id="Laag_1" xmlns="http://www.w3.org/2000/svg" xmlns:xlink="http://www.w3.org/1999/xlink" x="0px" y="0px"
	 viewBox="0 0 42.5 42.5" style="enable-background:new 0 0 42.5 42.5;" xml:space="preserve">
<style type="text/css">
	.st0{fill:#FFFFFF;}
	.st1{fill:#FDDF6D;}
	.st2{fill:#FAC56D;}
	.st3{fill:#464756;}
</style>
<rect id="XMLID_1_" x="0" class="st0" width="42.5" height="42.5"/>
<circle id="XMLID_509_" class="st1" cx="21.2" cy="21.3" r="21.1"/>
<g id="XMLID_529_">
	<path id="XMLID_508_" class="st2" d="M10.1,32.3C2.5,24.8,1.9,12.8,8.3,4.6c-0.7,0.5-1.4,1.1-2,1.8c-8.2,8.2-8.2,21.6,0,29.8
		s21.6,8.2,29.8,0c0.6-0.6,1.2-1.3,1.8-2C29.6,40.5,17.7,39.9,10.1,32.3z"/>
	<path id="XMLID_507_" class="st2" d="M17.6,30.7c-0.3,0-0.7-0.2-0.8-0.6c-0.1-0.4,0.1-0.8,0.5-1c2.4-0.7,5-0.7,7.5,0
		c0.4,0.1,0.7,0.5,0.5,1c-0.1,0.4-0.5,0.7-1,0.5c-2.2-0.6-4.5-0.6-6.6,0C17.8,30.7,17.7,30.7,17.6,30.7z"/>
</g>
<g id="XMLID_513_">
	<path id="XMLID_504_" class="st3" d="M21.6,25c-4.4,0-8.6,1.7-11.7,4.8c-0.3,0.3-0.3,0.8,0,1.1c0.3,0.3,0.8,0.3,1.1,0
		c2.8-2.8,6.6-4.4,10.6-4.4s7.8,1.6,10.6,4.4c0.2,0.2,0.4,0.2,0.6,0.2c0.2,0,0.4-0.1,0.6-0.2c0.3-0.3,0.3-0.8,0-1.1
		C30.2,26.8,26,25,21.6,25z"/>
	<path id="XMLID_503_" class="st3" d="M9,20.8c0,1.6,1.3,2.9,2.9,2.9s2.9-1.3,2.9-2.9c0-0.3-0.1-0.7-0.2-1c0.3,0,0.6,0.1,1,0.1
		c0.9,0,1.9-0.1,3-0.4c0.4-0.1,0.7-0.5,0.5-1c-0.1-0.4-0.5-0.7-1-0.5c-5.5,1.5-7.9-2-8-2.2c-0.2-0.4-0.7-0.5-1.1-0.2
		c-0.4,0.2-0.5,0.7-0.2,1.1c0,0,0.5,0.8,1.6,1.6C9.6,18.8,9,19.7,9,20.8z"/>
	<path id="XMLID_502_" class="st3" d="M33.3,15.6c-0.4-0.2-0.8-0.1-1.1,0.2c0,0-2.5,3.7-8,2.2c-0.4-0.1-0.8,0.1-1,0.5
		c-0.1,0.4,0.1,0.8,0.5,1c1.1,0.3,2.1,0.4,3,0.4c0.3,0,0.7,0,1-0.1c-0.1,0.3-0.2,0.6-0.2,1c0,1.6,1.3,2.9,2.9,2.9s2.9-1.3,2.9-2.9
		c0-1.1-0.6-2-1.5-2.5c1.1-0.8,1.6-1.6,1.6-1.6C33.8,16.3,33.7,15.8,33.3,15.6z"/>
</g>
</svg>
