<?xml version="1.0" encoding="utf-8"?>
<!-- Generator: Adobe Illustrator 19.0.0, SVG Export Plug-In . SVG Version: 6.00 Build 0)  -->
<svg version="1.1" id="Laag_1" xmlns="http://www.w3.org/2000/svg" xmlns:xlink="http://www.w3.org/1999/xlink" x="0px" y="0px"
	 viewBox="0 0 42.5 42.5" style="enable-background:new 0 0 42.5 42.5;" xml:space="preserve">
<style type="text/css">
	.st0{fill:#FFFFFF;}
	.st1{fill:#BFBFC1;}
	.st2{fill:#805C55;}
	.st3{fill:#FDDF6D;}
	.st4{fill:#FAC56E;}
	.st5{fill:#ADACB2;}
	.st6{fill:#79B6BA;}
	.st7{fill:#5E9EA7;}
</style>
<rect id="XMLID_1_" x="0" class="st0" width="42.5" height="42.5"/>
<path id="XMLID_477_" class="st1" d="M19.7,28.7L7.8,40.5c-0.3,0.3-0.3,0.9,0,1.3l0.1,0.1c0.3,0.3,0.9,0.3,1.3,0
	C20,31.1,16.8,34.3,23,28.1L19.7,28.7z"/>
<path id="XMLID_455_" class="st2" d="M5.5,31.3c0-0.4,0.3-0.7,0.7-0.7c0.1,0,2.4-0.1,3.7-3.5c0.7-1.8,2.2-2.8,4.3-3
	c1.5-0.2,2.9,0.2,2.9,0.2c0.4,0.1,0.6,0.5,0.5,0.8c-0.1,0.4-0.5,0.6-0.8,0.5l0,0c0,0-1.2-0.3-2.5-0.2c-1.6,0.2-2.7,0.9-3.2,2.1
	C9.5,32,6.3,32,6.2,32C5.8,32,5.5,31.7,5.5,31.3z"/>
<path id="XMLID_442_" class="st3" d="M30.8,4.4L14.1,21.1l0,0l-0.2,0.2c-0.5,0.6-0.5,1.2,0.2,1.9l6.9,6.9l17.7-17.7L30.8,4.4z"/>
<path id="XMLID_440_" class="st1" d="M38.7,12.4c0.4-0.4,0.1,0.4,3.3-10.8c0.1-0.4-0.1-0.6-0.5-0.5C30.4,4.3,31.1,4,30.8,4.4
	L38.7,12.4z"/>
<path id="XMLID_439_" class="st4" d="M15.9,24.9C15,24,15.4,23.3,15.7,23c0,0,0.2-0.2,0.2-0.2l0,0L32.5,6.2l-1.8-1.8L14.1,21.1l0,0
	l-0.2,0.2c-0.5,0.6-0.5,1.2,0.2,1.9L15.9,24.9C15.9,24.9,15.9,24.9,15.9,24.9z"/>
<path id="XMLID_430_" class="st5" d="M32.6,6.1c0.4-0.4-0.2-0.1,9-2.8L42,1.6c0.1-0.4-0.1-0.6-0.5-0.5C30.4,4.3,31.1,4,30.8,4.4l8,8
	c0,0,0,0,0,0L32.6,6.1z"/>
<g id="XMLID_512_">
	<path id="XMLID_420_" class="st4" d="M0.4,33c-0.1-0.4,0.1-0.7,0.5-0.8l2.6-0.6c0.4-0.1,0.7,0.1,0.8,0.5c0.1,0.4-0.1,0.7-0.5,0.8
		l-2.6,0.6C0.8,33.6,0.5,33.4,0.4,33z"/>
	<path id="XMLID_414_" class="st4" d="M3,36.6c-0.3-0.2-0.4-0.6-0.2-0.9l1.4-2.3c0.2-0.3,0.6-0.4,0.9-0.2c0.3,0.2,0.4,0.6,0.2,0.9
		l-1.4,2.3C3.8,36.7,3.3,36.8,3,36.6z"/>
	<path id="XMLID_407_" class="st4" d="M4.8,29.3l-0.6-2.6C4,26.4,4.2,26,4.6,25.9c0.4-0.1,0.7,0.1,0.8,0.5L6.1,29
		c0.1,0.4-0.1,0.7-0.5,0.8C5.2,29.9,4.9,29.7,4.8,29.3z"/>
	<path id="XMLID_406_" class="st4" d="M6.6,36.8L6,34.2c-0.1-0.4,0.1-0.7,0.5-0.8c0.4-0.1,0.7,0.1,0.8,0.5l0.6,2.6
		c0.1,0.4-0.1,0.7-0.5,0.8C7.1,37.3,6.7,37.1,6.6,36.8z"/>
	<path id="XMLID_405_" class="st4" d="M3.5,30.9l-2.3-1.4c-0.3-0.2-0.4-0.6-0.2-0.9c0.2-0.3,0.6-0.4,0.9-0.2l2.3,1.4
		c0.3,0.2,0.4,0.6,0.2,0.9C4.3,31,3.8,31.1,3.5,30.9z"/>
	<path id="XMLID_364_" class="st4" d="M10.1,34.8l-2.3-1.4c-0.3-0.2-0.4-0.6-0.2-0.9c0.2-0.3,0.6-0.4,0.9-0.2l2.3,1.4
		c0.3,0.2,0.4,0.6,0.2,0.9C10.8,34.9,10.4,35,10.1,34.8z"/>
</g>
<polyline id="XMLID_363_" class="st6" points="33.5,13.1 34.6,16.5 31.7,19.4 27.9,7.3 30.8,4.4 32.9,11.1 "/>
<polygon id="XMLID_354_" class="st7" points="28.7,10 31.6,7.1 30.8,4.4 27.9,7.3 "/>
<polygon id="XMLID_353_" class="st6" points="26.3,24.7 22.6,12.6 25.4,9.7 29.2,21.8 "/>
<path id="XMLID_352_" class="st7" d="M25.4,9.7c-1.4,1.4-0.7,0.7-2.9,2.9l0.8,2.7l2.9-2.9L25.4,9.7z"/>
<polygon id="XMLID_348_" class="st6" points="21,30.1 17.2,17.9 20.1,15 23.9,27.2 "/>
<g id="XMLID_501_">
	<polygon id="XMLID_347_" class="st7" points="20.1,15 17.2,17.9 18.1,20.6 21,17.7 	"/>
	<polygon id="XMLID_327_" class="st7" points="21,30.1 21,30.1 21,30 	"/>
</g>
</svg>
