<?xml version="1.0" encoding="utf-8"?>
<!-- Generator: Adobe Illustrator 19.0.0, SVG Export Plug-In . SVG Version: 6.00 Build 0)  -->
<svg version="1.1" id="Laag_1" xmlns="http://www.w3.org/2000/svg" xmlns:xlink="http://www.w3.org/1999/xlink" x="0px" y="0px"
	 viewBox="0 0 42.5 42.5" style="enable-background:new 0 0 42.5 42.5;" xml:space="preserve">
<style type="text/css">
	.st0{fill:#FFFFFF;}
	.st1{fill:#5A5A5D;}
</style>
<rect id="XMLID_1_" x="0" class="st0" width="42.5" height="42.5"/>
<g id="XMLID_134_">
	<path id="XMLID_135_" class="st1" d="M32.1,14.7h1.5V19l8.9-7.7l-8.9-7.7v5.1h-1.5c-7.9,0-12.3,5.8-16.2,11
		c-3.5,4.6-6.5,8.6-11.5,8.6H0v6h4.5c7.9,0,12.3-5.8,16.2-11C24.2,18.7,27.2,14.7,32.1,14.7z M11.5,18.5c0.3-0.4,0.7-0.9,1-1.3
		c0.8-1.1,1.7-2.2,2.7-3.4C12.4,11.1,9,9.2,4.5,9.2H0v6h4.5C7.3,15.2,9.5,16.5,11.5,18.5z M33.6,28.8h-1.5c-3,0-5.3-1.5-7.4-3.7
		c-0.2,0.3-0.4,0.6-0.6,0.8c-0.9,1.2-1.9,2.6-3.1,3.9c2.9,2.8,6.4,4.9,11.1,4.9h1.5v5.1l8.9-7.7l-8.9-7.7V28.8z"/>
</g>
</svg>
