<?xml version="1.0" encoding="utf-8"?>
<!-- Generator: Adobe Illustrator 19.0.0, SVG Export Plug-In . SVG Version: 6.00 Build 0)  -->
<svg version="1.1" id="Laag_1" xmlns="http://www.w3.org/2000/svg" xmlns:xlink="http://www.w3.org/1999/xlink" x="0px" y="0px"
	 viewBox="0 0 42.5 42.5" style="enable-background:new 0 0 42.5 42.5;" xml:space="preserve">
<style type="text/css">
	.st0{fill:#FFFFFF;}
	.st1{fill:#44B7A5;}
	.st2{fill:#EDDCC7;}
	.st3{fill:#D85B4B;}
	.st4{fill:#F39D22;}
	.st5{fill:#D7C5B2;}
	.st6{fill:#A44841;}
	.st7{fill:#E18C25;}
	.st8{fill:#5F5F5F;}
</style>
<rect id="XMLID_1_" x="0" class="st0" width="42.5" height="42.5"/>
<g id="XMLID_230_">
	<g id="XMLID_241_">
		<path id="XMLID_227_" class="st1" d="M34.3,39.4H8c-3.4,0-6.2-2.8-6.2-6.2V7.1c0-3.4,2.8-6.2,6.2-6.2h26.3c3.4,0,6.2,2.8,6.2,6.2
			v26.2C40.5,36.7,37.7,39.4,34.3,39.4z"/>
		<path id="XMLID_226_" class="st0" d="M34.5,11.3H21.1c-0.4,0-0.7-0.3-0.7-0.7c0-0.4,0.3-0.7,0.7-0.7h13.4c0.4,0,0.7,0.3,0.7,0.7
			C35.3,10.9,35,11.3,34.5,11.3z"/>
		<path id="XMLID_225_" class="st0" d="M34.5,21.6H21.1c-0.4,0-0.7-0.3-0.7-0.7s0.3-0.7,0.7-0.7h13.4c0.4,0,0.7,0.3,0.7,0.7
			S35,21.6,34.5,21.6z"/>
		<path id="XMLID_224_" class="st0" d="M34.5,32H21.1c-0.4,0-0.7-0.3-0.7-0.7s0.3-0.7,0.7-0.7h13.4c0.4,0,0.7,0.3,0.7,0.7
			S35,32,34.5,32z"/>
		<path id="XMLID_223_" class="st0" d="M10.8,13.5c-0.2,0-0.3,0-0.4-0.1l-3.4-2.5c-0.3-0.2-0.4-0.7-0.1-1c0.2-0.3,0.7-0.4,1-0.1
			l2.8,2.1l4.7-5.4c0.3-0.3,0.7-0.3,1-0.1c0.3,0.3,0.3,0.7,0.1,1l-5.1,5.9C11.2,13.4,11,13.5,10.8,13.5z"/>
		<path id="XMLID_222_" class="st0" d="M10.8,23.9c-0.2,0-0.3,0-0.4-0.1l-3.4-2.5c-0.3-0.2-0.4-0.7-0.1-1s0.7-0.4,1-0.1l2.8,2.1
			l4.7-5.4c0.3-0.3,0.7-0.3,1-0.1c0.3,0.3,0.3,0.7,0.1,1l-5.1,5.9C11.2,23.8,11,23.9,10.8,23.9z"/>
		<path id="XMLID_221_" class="st0" d="M10.8,35c-0.2,0-0.3,0-0.4-0.1l-3.4-2.5c-0.3-0.2-0.4-0.7-0.1-1c0.2-0.3,0.7-0.4,1-0.1
			l2.8,2.1l4.7-5.4c0.3-0.3,0.7-0.3,1-0.1c0.3,0.3,0.3,0.7,0.1,1l-5.1,5.9C11.2,34.9,11,35,10.8,35z"/>
	</g>
	<g id="XMLID_231_">
		<polygon id="XMLID_220_" class="st2" points="26.2,34.6 26.2,34.6 24.7,40 28.2,36.6 		"/>
		<path id="XMLID_219_" class="st3" d="M40.6,24.3l-0.9-0.9c-0.6-0.6-1.5-0.6-2.1,0L34.9,26l2,2L40.6,24.3z"/>
		<polygon id="XMLID_218_" class="st4" points="34.9,26 36.9,28 28.2,36.6 26.2,34.6 		"/>
		<polygon id="XMLID_217_" class="st5" points="30.4,38.8 30.4,38.8 28.2,36.6 24.7,40 24.6,40.4 		"/>
		<path id="XMLID_216_" class="st6" d="M39.1,30.2l2.7-2.7c0.6-0.6,0.6-1.5,0-2.1l-1.2-1.2L36.9,28L39.1,30.2z"/>
		<polygon id="XMLID_215_" class="st7" points="30.4,38.8 28.2,36.6 36.8,28 39.1,30.2 		"/>
		<path id="XMLID_214_" class="st8" d="M24.1,41.6c-0.2,0-0.4-0.1-0.5-0.2c-0.3-0.3-0.3-0.8,0-1l1.6-1.6c0.3-0.3,0.8-0.3,1.1,0
			s0.3,0.8,0,1l-1.6,1.6C24.5,41.6,24.3,41.6,24.1,41.6z"/>
	</g>
</g>
</svg>
