<?xml version="1.0" encoding="utf-8"?>
<!-- Generator: Adobe Illustrator 19.0.0, SVG Export Plug-In . SVG Version: 6.00 Build 0)  -->
<svg version="1.1" id="Laag_1" xmlns="http://www.w3.org/2000/svg" xmlns:xlink="http://www.w3.org/1999/xlink" x="0px" y="0px"
	 viewBox="0 0 42.5 42.5" style="enable-background:new 0 0 42.5 42.5;" xml:space="preserve">
<style type="text/css">
	.st0{fill:#FFFFFF;}
	.st1{fill:#ADACB2;}
	.st2{fill:#5B5B5E;}
	.st3{fill:#ED6A3B;}
	.st4{fill:#BFBFC1;}
</style>
<rect id="XMLID_1_" x="0" class="st0" width="42.5" height="42.5"/>
<g id="XMLID_184_">
	<path id="XMLID_181_" class="st1" d="M15.2,16v25c0,0.3,4.8,1.2,10.6,1.2c5.9,0,10.6-0.8,10.6-1.2V16H15.2z"/>
	<path id="XMLID_178_" class="st2" d="M31.1,13.5c-1.2-0.3-1.5-1.3-1.5-1.3h-3.7h-3.7c0,0-0.3,1-1.5,1.3c-1.5,0.4-5.4,0.3-5.4,2.5
		h10.6h10.6C36.5,13.8,32.5,14,31.1,13.5z"/>
	<path id="XMLID_177_" class="st1" d="M29.6,12.2h-3.7h-3.7c0,0-0.3,0.9-1.4,1.3h5.2h5.2C29.9,13.2,29.6,12.2,29.6,12.2z"/>
	<rect id="XMLID_176_" x="22.2" y="8.7" class="st2" width="7.5" height="3.6"/>
	<rect id="XMLID_174_" x="20.4" y="9.1" class="st2" width="1.8" height="2.8"/>
	<rect id="XMLID_173_" x="14.1" y="9.7" class="st1" width="6.3" height="1.5"/>
	<rect id="XMLID_172_" x="14.1" y="9.1" class="st2" width="1" height="2.8"/>
	<polygon id="XMLID_139_" class="st3" points="14.1,8.6 2.5,5.7 2.5,15.2 14.1,12.3 	"/>
	<path id="XMLID_138_" class="st1" d="M22.2,8.7V7c0,0,5.1,0,7.3,0c4.8,0,9.8,2.5,10.4,3c0.6,0.5-0.2,2.4-0.7,2
		c-0.5-0.4-0.9-1.3-3-2c-2.1-0.7-3.9-1.3-6.5-1.3S22.2,8.7,22.2,8.7z"/>
	<path id="XMLID_137_" class="st4" d="M39.2,0.4c-0.6,0.2-16.6,4.8-17,5.2c-0.4,0.4,0,1.5,0,1.5l3.1,1.3c0.2,0.2,0.4,0.3,0.6,0.3
		c0.3,0,0.5-0.1,0.6-0.3h0l0,0c0.1-0.1,0.1-0.2,0.2-0.3c0.3-0.5,1-1.6,1.8-2c1.1-0.6,6.1-2.2,8.4-3.3C39.3,1.6,39.7,0.2,39.2,0.4z"
		/>
</g>
</svg>
