<?xml version="1.0" encoding="utf-8"?>
<!-- Generator: Adobe Illustrator 19.0.0, SVG Export Plug-In . SVG Version: 6.00 Build 0)  -->
<svg version="1.1" id="Laag_1" xmlns="http://www.w3.org/2000/svg" xmlns:xlink="http://www.w3.org/1999/xlink" x="0px" y="0px"
	 viewBox="0 0 42.5 42.5" style="enable-background:new 0 0 42.5 42.5;" xml:space="preserve">
<style type="text/css">
	.st0{fill:#FFFFFF;}
	.st1{fill:#FDCE70;}
	.st2{fill:#ED6A3B;}
</style>
<rect id="XMLID_1_" x="0" class="st0" width="42.5" height="42.5"/>
<path id="XMLID_136_" class="st1" d="M21.3,0.2C9.6,0.2,0.2,9.6,0.2,21.3s9.4,21.1,21.1,21.1s21.1-9.4,21.1-21.1S32.9,0.2,21.3,0.2z
	"/>
<path id="XMLID_132_" class="st2" d="M25.9,37.7c9.2-3.1,9.8-11.2,6.4-17.8c-1.8-3.1-0.6-5-0.6-5s-3.5,0.6-5,3.5
	c-2-4.3,3-6.1-0.4-13.6c0,0-1.5,2.7-5.8,5s-4,7.3-4,7.3s-0.8-3.4-4.7-4c0,0,0.8,3.4-1.1,6.3S4.1,35.4,20.9,37.7
	c0,0-7.8-5.4-4.2-14.7c0,0,0.9,2.2,2.5,2.8c0,0,0.8-3.8,4.7-5.3c0,0-0.4,4.4,1.6,6.1c0,0,2-1.2,2.3-3C27.7,23.6,30.8,31.8,25.9,37.7
	z"/>
</svg>
