<?xml version="1.0" encoding="utf-8"?>
<!-- Generator: Adobe Illustrator 19.0.0, SVG Export Plug-In . SVG Version: 6.00 Build 0)  -->
<svg version="1.1" id="Laag_1" xmlns="http://www.w3.org/2000/svg" xmlns:xlink="http://www.w3.org/1999/xlink" x="0px" y="0px"
	 viewBox="0 0 42.5 42.5" style="enable-background:new 0 0 42.5 42.5;" xml:space="preserve">
<style type="text/css">
	.st0{fill:#FFFFFF;}
	.st1{fill:#44B7A5;}
	.st2{fill:#5B5B5E;}
	.st3{fill:#ADACB2;}
</style>
<rect id="XMLID_1_" x="0" class="st0" width="42.5" height="42.5"/>
<circle id="XMLID_193_" class="st1" cx="21.3" cy="21.3" r="21"/>
<circle id="XMLID_192_" class="st0" cx="21.3" cy="21.3" r="17"/>
<path id="XMLID_190_" class="st2" d="M27.5,17.1c0.6-0.6,0.6-1.6,0-2.3c-0.6-0.6-1.6-0.6-2.3,0l-6,6l2.3,2.3L27.5,17.1z"/>
<path id="XMLID_187_" class="st2" d="M14.4,12c-0.6-0.6-1.6-0.6-2.3,0c-0.6,0.6-0.6,1.6,0,2.3l8.1,8.1l2.3-2.3L14.4,12z"/>
<path id="XMLID_186_" class="st3" d="M21.3,23.7c-1.4,0-2.5-1.1-2.5-2.5s1.1-2.5,2.5-2.5s2.5,1.1,2.5,2.5S22.7,23.7,21.3,23.7z"/>
<g id="XMLID_195_">
	<path id="XMLID_185_" class="st3" d="M9.8,22.3H8.3c-0.5,0-1-0.4-1-1s0.4-1,1-1h1.5c0.5,0,1,0.4,1,1S10.3,22.3,9.8,22.3z"/>
	<path id="XMLID_182_" class="st3" d="M21.3,10.7c-0.5,0-1-0.4-1-1V8.2c0-0.5,0.4-1,1-1s1,0.4,1,1v1.5
		C22.3,10.3,21.9,10.7,21.3,10.7z"/>
	<path id="XMLID_180_" class="st3" d="M34.4,22.3h-1.5c-0.5,0-1-0.4-1-1s0.4-1,1-1h1.5c0.5,0,1,0.4,1,1S34.9,22.3,34.4,22.3z"/>
	<path id="XMLID_175_" class="st3" d="M21.3,35.3c-0.5,0-1-0.4-1-1v-1.5c0-0.5,0.4-1,1-1s1,0.4,1,1v1.5
		C22.3,34.8,21.9,35.3,21.3,35.3z"/>
</g>
</svg>
